<svg id="Capa_1" enable-background="new 0 0 512 512" height="512" viewBox="0 0 512 512" width="512" xmlns="http://www.w3.org/2000/svg"><g><path d="m468.046 0h-424.092v386.65c-.009 5.849 2.12 11.244 6.034 15.216 3.728 3.78 8.763 5.862 14.179 5.862h85.988l.001 83.463c0 10.634 7.965 19.427 18.253 20.81h299.636v-512.001zm-310.338 134.956c-2.315-.925-6.121-1.935-11.422-3.029-6.814-1.43-12.494-2.966-17.037-4.606-4.544-1.641-8.499-4.333-11.863-8.077-3.366-3.743-5.048-8.813-5.048-15.208 0-7.403 2.67-13.756 8.014-19.057 5.342-5.301 13.019-8.665 23.032-10.097v-13.755h17.795v13.503c10.096.927 18.635 3.366 25.619 7.32l-8.961 21.581c-8.666-4.374-16.87-6.562-24.609-6.562-7.657 0-11.484 1.852-11.484 5.553 0 1.767 1.136 3.092 3.407 3.976 2.271.883 6.015 1.83 11.232 2.839 6.729 1.262 12.409 2.713 17.037 4.354 4.626 1.641 8.645 4.313 12.053 8.014 3.407 3.703 5.111 8.752 5.111 15.145 0 7.067-2.546 13.231-7.636 18.489-5.092 5.259-12.348 8.729-21.77 10.412v14.009h-17.795v-13.377c-6.311-.337-12.349-1.306-18.11-2.903-5.764-1.597-10.538-3.575-14.324-5.932l9.592-21.707c4.206 2.441 8.917 4.397 14.135 5.869 5.216 1.473 10.223 2.209 15.018 2.209 4.122 0 7.067-.398 8.835-1.199 1.767-.798 2.65-1.998 2.65-3.597 0-1.852-1.159-3.24-3.471-4.167zm245.047 234.047h-30v-25.744l-85.428 85.428-95.811-95.812-38.841 38.84-21.213-21.213 60.054-60.054 95.811 95.812 65.671-65.67h-28.655v-30h78.412zm1-120.969h-294.023v-30h294.023zm0-60h-140.084v-30h140.084zm0-60h-140.084v-30h140.084z"/><path d="m120.155 437.727h-55.988c-7.097 0-13.943-1.464-20.213-4.224v1.471c0 42.54 34.486 77.026 77.026 77.026h3.635c-2.857-6.36-4.459-13.399-4.459-20.809z"/></g></svg>