<?xml version="1.0" encoding="iso-8859-1"?>
<!-- Generator: Adobe Illustrator 19.0.0, SVG Export Plug-In . SVG Version: 6.00 Build 0)  -->
<svg version="1.1" id="Layer_1" xmlns="http://www.w3.org/2000/svg" xmlns:xlink="http://www.w3.org/1999/xlink" x="0px" y="0px"
	 viewBox="0 0 511.997 511.997" style="enable-background:new 0 0 511.997 511.997;" xml:space="preserve">
<g>
	<g>
		<path d="M354.066,232.469L285.7,213.098l-23.864-74.393l35.831,56.449l6.672-16.266c0.265,2.162,0.1,1.366,8.093,21.289
			l29.311,8.305l-14.261-35.545c-2.987-7.445-12.317-9.982-18.667-4.962l3.172-7.734c6.42-15.65-1.064-33.541-16.714-39.961
			L244.74,99.55c-15.65-6.42-33.542,1.064-39.962,16.714c-2.869,6.994-41.69,103.171-54.668,135.324
			c-2.681,6.643-2.5,14.108,0.504,20.611c8.013,17.347,25.576,54.944,47.182,98.616l-33.671,99.1
			c-4.252,12.513,2.446,26.102,14.958,30.354c12.511,4.253,26.103-2.446,30.354-14.958l36.92-108.664
			c2.077-6.115,1.595-12.809-1.337-18.563l-35.736-70.121l7.055,2.286l41.657,78.509L246.501,474.49
			c-1.349,12.4,6.759,24.149,18.994,26.581c13.976,2.778,27.018-7.022,28.523-20.871l12.392-113.975
			c0.545-5.009-0.505-10.06-3-14.436l-40.706-71.403l3.899-9.503l-8.076-2.288c-18.421-5.219-27.503-21.647-28.243-30.891
			l-6.694-83.721l26.352,82.15c2.068,6.445,7.235,11.585,13.961,13.489l78.963,22.373c10.906,3.091,22.27-3.243,25.364-14.164
			C371.325,246.907,364.972,235.559,354.066,232.469z"/>
	</g>
</g>
<g>
	<g>
		<path d="M318.956,14.298c-24.131-10.596-52.23,1.478-61.043,26.501c-7.817,22.191,2.99,47.045,24.532,56.505
			c24.131,10.598,52.231-1.478,61.044-26.501C351.305,48.613,340.498,23.758,318.956,14.298z"/>
	</g>
</g>
<g>
	<g>
		<path d="M511.884,481.407c-1.016-9.228-9.161-16.029-18.443-16.029h-48.628L388.372,324.7c4.374-1.742,8.207-4.996,10.621-9.61
			c4.897-9.364,1.554-20.954-7.238-26.816l-13.481-8.992c-1.805,1.988-3.815,3.771-5.974,5.36
			c-6.222,4.579-13.755,7.409-21.845,7.809c-0.33,0.016-0.662,0.012-0.993,0.021c-0.33,0.008-0.66,0.029-0.989,0.029
			c-3.707,0-7.403-0.514-10.984-1.529l-27.356-7.751l48.63,32.434l60.07,149.727h-27.135c-9.283,0-17.426,6.8-18.445,16.027
			c-1.204,10.908,7.305,20.141,17.97,20.141h102.692C504.579,501.548,513.087,492.315,511.884,481.407z"/>
	</g>
</g>
<g>
	<g>
		<path d="M119.341,379.612c-1.929-2.306-4.78-3.637-7.786-3.637H10.152c-3.005,0-5.857,1.332-7.786,3.637
			c-1.929,2.304-2.738,5.347-2.207,8.305l18.854,105.266c0.867,4.839,5.077,8.363,9.993,8.363h63.696
			c4.916,0,9.126-3.523,9.993-8.363l18.854-105.266C122.078,384.958,121.269,381.916,119.341,379.612z"/>
	</g>
</g>
<g>
</g>
<g>
</g>
<g>
</g>
<g>
</g>
<g>
</g>
<g>
</g>
<g>
</g>
<g>
</g>
<g>
</g>
<g>
</g>
<g>
</g>
<g>
</g>
<g>
</g>
<g>
</g>
<g>
</g>
</svg>
