<?xml version="1.0" encoding="iso-8859-1"?>
<!-- Uploaded to: SVG Repo, www.svgrepo.com, Generator: SVG Repo Mixer Tools -->
<!DOCTYPE svg PUBLIC "-//W3C//DTD SVG 1.1//EN" "http://www.w3.org/Graphics/SVG/1.1/DTD/svg11.dtd">
<svg version="1.1" id="Capa_1" xmlns="http://www.w3.org/2000/svg" xmlns:xlink="http://www.w3.org/1999/xlink"
     width="800px" height="800px" viewBox="0 0 45.721 45.721"
     xml:space="preserve">
  <g>
    <path d="M31.686,11.161c-2.615-0.057-5.047,1.063-7.073,2.882c-0.344-2.371-1.271-4.273-1.271-4.273
             c10.967-1.485,7.901-9.753,7.901-9.753c-7.738-0.328-9.239,4.304-9.399,7.344c-2.385-2.55-5.077-4.009-6.202-4.518
             c-1.071-0.484-2.329,0.074-2.775,1.159c-0.446,1.088,0.094,2.284,1.161,2.774c1.411,0.649,5.841,2.251,7.181,7.409
             c-2.058-1.907-4.548-3.024-7.231-3.024c-7.066,0-13.598,5.845-11.318,17.281c1.866,9.357,8.678,17.279,15.744,17.279
             c1.842,0,3.291-0.527,4.427-1.475c1.138,0.946,2.586,1.484,4.428,1.475c7.307-0.045,13.542-7.505,15.744-17.279
             C45.232,18.552,40.071,11.343,31.686,11.161z"/>
  </g>
</svg>
