<?xml version="1.0" encoding="UTF-8" standalone="no"?>
<svg
   xmlns:dc="http://purl.org/dc/elements/1.1/"
   xmlns:cc="http://creativecommons.org/ns#"
   xmlns:rdf="http://www.w3.org/1999/02/22-rdf-syntax-ns#"
   xmlns:svg="http://www.w3.org/2000/svg"
   xmlns="http://www.w3.org/2000/svg"
   xmlns:sodipodi="http://sodipodi.sourceforge.net/DTD/sodipodi-0.dtd"
   xmlns:inkscape="http://www.inkscape.org/namespaces/inkscape"
   version="1.1"
   id="Capa_1"
   x="0px"
   y="0px"
   viewBox="0 0 512 450.02936"
   xml:space="preserve"
   sodipodi:docname="habit.svg"
   width="512"
   height="450.02936"
   inkscape:version="1.0.2 (e86c870879, 2021-01-15, custom)"><metadata
   id="metadata287"><rdf:RDF><cc:Work
       rdf:about=""><dc:format>image/svg+xml</dc:format><dc:type
         rdf:resource="http://purl.org/dc/dcmitype/StillImage" /><dc:title></dc:title></cc:Work></rdf:RDF></metadata><defs
   id="defs285" /><sodipodi:namedview
   pagecolor="#ffffff"
   bordercolor="#666666"
   borderopacity="1"
   objecttolerance="10"
   gridtolerance="10"
   guidetolerance="10"
   inkscape:pageopacity="0"
   inkscape:pageshadow="2"
   inkscape:window-width="1916"
   inkscape:window-height="536"
   id="namedview283"
   showgrid="false"
   inkscape:zoom="0.7068432"
   inkscape:cx="44.496233"
   inkscape:cy="225.01459"
   inkscape:window-x="3840"
   inkscape:window-y="540"
   inkscape:window-maximized="0"
   inkscape:current-layer="Capa_1" />
<g
   id="g244"
   transform="translate(0,-30.985405)">
	<g
   id="g242">
		<path
   d="m 356,123.984 -120,-90 c -10.291,-7.547 -24,0.149 -24,12.001 v 45 h -47 c -90.901,0 -165,74.099 -165,165 0,85.499 65.4,156 148.801,164.099 l -42.9,-32.1 c -7.984,-5.983 -7.964,-18.028 0,-24 l 45.599,-34.2 C 116.4,323.485 90,292.884 90,255.985 c 0,-41.4 33.6,-75 75,-75 h 47 v 45 c 0,11.841 13.705,19.553 24,11.999 l 120,-90 c 8.001,-5.537 8.018,-18.447 0,-24 z"
   id="path240" />
	</g>
</g>
<g
   id="g250"
   transform="translate(0,-30.985405)">
	<g
   id="g248">
		<path
   d="m 363.199,91.884 42.9,32.1 c 7.984,5.987 7.966,18.03 0,24 l -45.599,34.2 c 35.099,6.301 61.5,36.899 61.5,73.801 0,41.4 -33.6,75 -75,75 h -45 v -45 c 0,-11.813 -13.685,-19.566 -24,-12.001 l -122,90 c -8.002,5.542 -8.018,18.451 0,24 l 122,90 c 9.498,7.391 24,0.446 24,-11.999 v -45 h 45 c 90.901,0 165,-74.101 165,-165 0,-85.501 -65.4,-156 -148.801,-164.101 z"
   id="path246" />
	</g>
</g>
<g
   id="g252"
   transform="translate(0,-30.985405)">
</g>
<g
   id="g254"
   transform="translate(0,-30.985405)">
</g>
<g
   id="g256"
   transform="translate(0,-30.985405)">
</g>
<g
   id="g258"
   transform="translate(0,-30.985405)">
</g>
<g
   id="g260"
   transform="translate(0,-30.985405)">
</g>
<g
   id="g262"
   transform="translate(0,-30.985405)">
</g>
<g
   id="g264"
   transform="translate(0,-30.985405)">
</g>
<g
   id="g266"
   transform="translate(0,-30.985405)">
</g>
<g
   id="g268"
   transform="translate(0,-30.985405)">
</g>
<g
   id="g270"
   transform="translate(0,-30.985405)">
</g>
<g
   id="g272"
   transform="translate(0,-30.985405)">
</g>
<g
   id="g274"
   transform="translate(0,-30.985405)">
</g>
<g
   id="g276"
   transform="translate(0,-30.985405)">
</g>
<g
   id="g278"
   transform="translate(0,-30.985405)">
</g>
<g
   id="g280"
   transform="translate(0,-30.985405)">
</g>
</svg>
