<svg id="Capa_1" enable-background="new 0 0 512.039 512.039" height="512" viewBox="0 0 512.039 512.039" width="512" xmlns="http://www.w3.org/2000/svg"><g><path d="m255.874 67.497c-111.609-97.618-253.518-11.848-255.845 104.427-.593 29.633 7.961 58.498 24.988 85.109h110.364l19.63-32.718c5.7-9.499 19.494-9.805 25.517-.335l41.417 65.083 60.373-127.451c5.265-11.121 20.956-11.474 26.763-.69l51.752 96.111h125.898c93.262-145.76-91.055-311.811-230.857-189.536z"/><path d="m338.667 279.144-41.936-77.881-59.301 125.19c-5.045 10.651-19.884 11.576-26.211 1.632l-42.97-67.523-11.513 19.188c-2.711 4.518-7.593 7.282-12.862 7.282h-95.128c2.982 3.121-12.911-12.74 196.548 195.634 5.85 5.821 15.307 5.822 21.158 0 206.236-205.168 193.572-192.519 196.548-195.634h-111.126c-5.519.001-10.591-3.029-13.207-7.888z"/></g></svg>