<svg id="light" enable-background="new 0 0 24 24" height="512" viewBox="0 0 24 24" width="512" xmlns="http://www.w3.org/2000/svg"><g><path d="m15.5 12.5h-15c-.276 0-.5-.224-.5-.5s.224-.5.5-.5h15c.276 0 .5.224.5.5s-.224.5-.5.5z"/></g><g><path d="m11.5 16.5c-.128 0-.256-.049-.354-.146-.195-.195-.195-.512 0-.707l3.647-3.647-3.646-3.646c-.195-.195-.195-.512 0-.707s.512-.195.707 0l4 4c.195.195.195.512 0 .707l-4 4c-.098.097-.226.146-.354.146z"/></g><g><path d="m12 23c-4.655 0-8.823-2.947-10.372-7.333-.092-.261.045-.546.305-.638.261-.09.546.045.638.305 1.408 3.987 5.197 6.666 9.429 6.666 5.514 0 10-4.486 10-10s-4.486-10-10-10c-4.232 0-8.021 2.679-9.428 6.667-.092.26-.378.395-.638.305-.26-.092-.397-.377-.305-.638 1.548-4.387 5.716-7.334 10.371-7.334 6.065 0 11 4.935 11 11s-4.935 11-11 11z"/></g></svg>