<?xml version="1.0" encoding="iso-8859-1"?>
<!-- Generator: Adobe Illustrator 16.0.0, SVG Export Plug-In . SVG Version: 6.00 Build 0)  -->
<!DOCTYPE svg PUBLIC "-//W3C//DTD SVG 1.1//EN" "http://www.w3.org/Graphics/SVG/1.1/DTD/svg11.dtd">
<svg version="1.1" id="Capa_1" xmlns="http://www.w3.org/2000/svg" xmlns:xlink="http://www.w3.org/1999/xlink" x="0px" y="0px"
	 width="554.883px" height="554.883px" viewBox="0 0 554.883 554.883" style="enable-background:new 0 0 554.883 554.883;"
	 xml:space="preserve">
<g>
	<g>
		<path d="M277.334,27.482C124.414,28.192,0,153.178,0,306.092c0,46.439,11.643,92.219,33.66,132.785v-73.66
			c0-13.576,4.832-26.168,13.302-36.971c-0.701-7.346-1.062-14.74-1.062-22.154c0-127.724,103.915-232.116,231.434-232.709
			c127.73,0.591,231.645,104.985,231.645,232.709c0,8.211-0.455,16.393-1.314,24.52c7.361,10.258,11.518,22.012,11.518,34.605
			v77.396c23.35-41.477,35.701-88.656,35.701-136.521C554.883,153.178,430.469,28.192,277.334,27.482z"/>
		<path d="M50.756,353.324c-1.172,3.84-1.796,7.818-1.796,11.896v70.994v33.045c0,32.109,38.241,58.141,85.417,58.141h35.964V307.08
			h-35.964C93.192,307.08,58.825,326.918,50.756,353.324z"/>
		<path d="M503.881,469.26v-34.201v-69.838c0-2.506-0.26-4.973-0.713-7.396c-5.34-28.617-41.213-50.744-84.703-50.744H382.5V527.4
			h35.965C465.641,527.4,503.881,501.369,503.881,469.26z"/>
	</g>
</g>
<g>
</g>
<g>
</g>
<g>
</g>
<g>
</g>
<g>
</g>
<g>
</g>
<g>
</g>
<g>
</g>
<g>
</g>
<g>
</g>
<g>
</g>
<g>
</g>
<g>
</g>
<g>
</g>
<g>
</g>
</svg>
