<svg height="490pt" viewBox="0 -10 490.66667 490" width="490pt" xmlns="http://www.w3.org/2000/svg"><path d="m474.667969 251h-309.335938c-8.832031 0-16-7.167969-16-16s7.167969-16 16-16h309.335938c8.832031 0 16 7.167969 16 16s-7.167969 16-16 16zm0 0"/><path d="m250.667969 336.332031c-4.097657 0-8.191407-1.554687-11.308594-4.691406l-85.332031-85.332031c-6.25-6.253906-6.25-16.386719 0-22.636719l85.332031-85.332031c6.25-6.25 16.382813-6.25 22.636719 0 6.25 6.25 6.25 16.382812 0 22.632812l-74.027344 74.027344 74.027344 74.027344c6.25 6.25 6.25 16.382812 0 22.632812-3.136719 3.117188-7.234375 4.671875-11.328125 4.671875zm0 0"/><path d="m234.667969 469.667969c-129.386719 0-234.667969-105.28125-234.667969-234.667969s105.28125-234.667969 234.667969-234.667969c97.085937 0 182.804687 58.410157 218.410156 148.824219 3.242187 8.210938-.8125 17.492188-9.023437 20.753906-8.214844 3.203125-17.496094-.789062-20.757813-9.042968-30.742187-78.082032-104.789063-128.535157-188.628906-128.535157-111.746094 0-202.667969 90.925781-202.667969 202.667969s90.921875 202.667969 202.667969 202.667969c83.839843 0 157.886719-50.453125 188.628906-128.511719 3.242187-8.257812 12.523437-12.246094 20.757813-9.046875 8.210937 3.242187 12.265624 12.542969 9.023437 20.757813-35.605469 90.390624-121.324219 148.800781-218.410156 148.800781zm0 0"/></svg>