<?xml version="1.0" encoding="iso-8859-1"?>
<!-- Generator: Adobe Illustrator 19.0.0, SVG Export Plug-In . SVG Version: 6.00 Build 0)  -->
<svg version="1.1" id="Capa_1" xmlns="http://www.w3.org/2000/svg" xmlns:xlink="http://www.w3.org/1999/xlink" x="0px" y="0px"
	 viewBox="0 0 488.348 488.348" style="enable-background:new 0 0 488.348 488.348;" xml:space="preserve">
<g>
	<g>
		<path d="M454.147,222.924c-24.064-26.112-57.856-40.96-93.696-40.96H258.563V142.54c0-19.968,11.776-38.4,29.696-46.592
			l38.4-17.92l-12.8-27.648l-38.4,17.92c-28.672,13.824-47.104,42.496-47.104,74.24v39.424H127.491
			c-70.656,0-128,57.856-127.488,128.512s57.856,128,128.512,127.488c35.328,0,69.12-14.848,93.696-40.96h44.544
			c48.128,51.712,129.024,54.784,180.736,6.656C499.203,355.532,502.275,274.636,454.147,222.924z M153.091,324.812h-16.384v16.384
			c0,8.704-6.656,15.36-15.36,15.36s-15.36-6.656-15.36-15.36v-16.384H89.603c-8.704,0-15.36-6.656-15.36-15.36
			c0-8.704,6.656-15.36,15.36-15.36h16.384v-16.384c0-8.704,6.656-15.36,15.36-15.36s15.36,6.656,15.36,15.36v16.384h16.384
			c8.704,0,15.36,6.656,15.36,15.36S161.795,324.812,153.091,324.812z M343.043,373.964c-17.408,0-31.744-14.336-31.744-31.744
			c0-17.408,14.336-31.744,31.744-31.744c17.408,0,31.744,14.336,31.744,31.744C374.787,359.628,360.451,373.964,343.043,373.964z
			 M394.755,313.036c-17.408,0-31.744-14.336-31.744-31.744s14.336-31.744,31.744-31.744s31.744,14.336,31.744,31.744
			C426.499,298.7,412.163,313.036,394.755,313.036z"/>
	</g>
</g>
<g>
</g>
<g>
</g>
<g>
</g>
<g>
</g>
<g>
</g>
<g>
</g>
<g>
</g>
<g>
</g>
<g>
</g>
<g>
</g>
<g>
</g>
<g>
</g>
<g>
</g>
<g>
</g>
<g>
</g>
</svg>
