<?xml version="1.0" encoding="iso-8859-1"?>
<!-- Generator: Adobe Illustrator 18.0.0, SVG Export Plug-In . SVG Version: 6.00 Build 0)  -->
<!DOCTYPE svg PUBLIC "-//W3C//DTD SVG 1.1//EN" "http://www.w3.org/Graphics/SVG/1.1/DTD/svg11.dtd">
<svg version="1.1" id="Capa_1" xmlns="http://www.w3.org/2000/svg" xmlns:xlink="http://www.w3.org/1999/xlink" x="0px" y="0px"
	 viewBox="0 0 219 219" style="enable-background:new 0 0 219 219;" xml:space="preserve">
<path d="M195.501,49.5H114V32.07c0-7.679-5.574-13.57-13.253-13.57H14.736C7.057,18.5,0,24.391,0,32.07v41.797v14.944V176.5
	c0,13.439,11.727,24,25.166,24h170.335c13.439,0,23.499-10.561,23.499-24V73.867C219,60.428,208.94,49.5,195.501,49.5z
	 M150.903,128.742l-39.938,33.094c-1.744,1.447-3.965-0.364-3.965-3.26V144.5H73.475c-2.84,0-5.475-3.377-5.475-7.462V113.33
	c0-4.085,2.635-7.83,5.475-7.83H107V91.792c0-2.896,2.221-4.707,3.965-3.26l39.917,33.089
	C152.789,123.202,152.81,127.16,150.903,128.742z"/>
<g>
</g>
<g>
</g>
<g>
</g>
<g>
</g>
<g>
</g>
<g>
</g>
<g>
</g>
<g>
</g>
<g>
</g>
<g>
</g>
<g>
</g>
<g>
</g>
<g>
</g>
<g>
</g>
<g>
</g>
</svg>
