<?xml version="1.0" encoding="iso-8859-1"?>
<!-- Generator: Adobe Illustrator 19.0.0, SVG Export Plug-In . SVG Version: 6.00 Build 0)  -->
<svg version="1.1" id="Capa_1" xmlns="http://www.w3.org/2000/svg" xmlns:xlink="http://www.w3.org/1999/xlink" x="0px" y="0px"
	 viewBox="0 0 445.44 445.44" style="enable-background:new 0 0 445.44 445.44;" xml:space="preserve">
<g>
	<g>
		<path d="M404.48,108.288H247.808l79.36-78.336l-14.336-14.336L230.4,96.512l-82.432-81.408L133.632,29.44l79.36,78.336H40.96
			c-22.528,0-40.96,18.432-40.96,40.96v240.64c0,22.528,18.432,40.96,40.96,40.96h363.52c22.528,0,40.96-18.432,40.96-40.96v-240.64
			C445.44,126.72,427.008,108.288,404.48,108.288z M276.48,336.64c0,16.896-13.824,30.72-30.72,30.72H87.04
			c-16.896,0-30.72-13.824-30.72-30.72V203.52c0-16.896,13.824-30.72,30.72-30.72h158.72c16.896,0,30.72,13.824,30.72,30.72V336.64z
			 M353.28,355.072c-19.968,0-35.84-15.872-35.84-35.84c0-19.968,15.872-35.84,35.84-35.84s35.84,15.872,35.84,35.84
			C389.12,339.2,373.248,355.072,353.28,355.072z M394.24,251.136h-81.92v-20.48h81.92V251.136z M394.24,199.936h-81.92v-20.48
			h81.92V199.936z"/>
	</g>
</g>
<g>
</g>
<g>
</g>
<g>
</g>
<g>
</g>
<g>
</g>
<g>
</g>
<g>
</g>
<g>
</g>
<g>
</g>
<g>
</g>
<g>
</g>
<g>
</g>
<g>
</g>
<g>
</g>
<g>
</g>
</svg>
