<?xml version="1.0" encoding="UTF-8" standalone="no"?>
<svg
   xmlns:dc="http://purl.org/dc/elements/1.1/"
   xmlns:cc="http://creativecommons.org/ns#"
   xmlns:rdf="http://www.w3.org/1999/02/22-rdf-syntax-ns#"
   xmlns:svg="http://www.w3.org/2000/svg"
   xmlns="http://www.w3.org/2000/svg"
   xmlns:sodipodi="http://sodipodi.sourceforge.net/DTD/sodipodi-0.dtd"
   xmlns:inkscape="http://www.inkscape.org/namespaces/inkscape"
   version="1.1"
   id="Capa_1"
   x="0px"
   y="0px"
   xml:space="preserve"
   sodipodi:docname="work-tools-cross.svg"
   inkscape:version="1.0.2 (e86c870879, 2021-01-15, custom)"><metadata
   id="metadata158"><rdf:RDF><cc:Work
       rdf:about=""><dc:format>image/svg+xml</dc:format><dc:type
         rdf:resource="http://purl.org/dc/dcmitype/StillImage" /><dc:title></dc:title></cc:Work></rdf:RDF></metadata><defs
   id="defs156" /><sodipodi:namedview
   pagecolor="#ffffff"
   bordercolor="#666666"
   borderopacity="1"
   objecttolerance="10"
   gridtolerance="10"
   guidetolerance="10"
   inkscape:pageopacity="0"
   inkscape:pageshadow="2"
   inkscape:window-width="1916"
   inkscape:window-height="1076"
   id="namedview154"
   showgrid="false"
   inkscape:zoom="5.2443806"
   inkscape:cx="2.7134828"
   inkscape:cy="30.714303"
   inkscape:window-x="3840"
   inkscape:window-y="0"
   inkscape:window-maximized="1"
   inkscape:current-layer="Capa_1" />
<g
   id="g121"
   transform="matrix(0.0081,0,0,0.0081,0,-0.14319563)">
	<g
   id="g119">
		<path
   d="m 628.833,459.92 67.596,-67.596 c 48.836,19.389 103.95,18.183 152.007,-3.614 11.799,-5.353 14.622,-20.844 5.46,-30.006 L 733.52,238.329 c -14.625,-14.625 -14.625,-38.338 0,-52.963 L 853.771,65.114 c 9.221,-9.222 6.385,-24.827 -5.497,-30.203 C 776.762,2.554 689.668,15.763 630.885,74.545 575.672,129.757 560.806,210.52 586.267,279.503 l -68.926,68.926 z"
   id="path103" />
		<path
   d="m 499.665,366.106 -93.414,-93.414 -111.491,111.492 93.414,93.414 111.49,111.491 341.527,341.527 c 4.877,4.877 11.271,7.316 17.662,7.316 6.393,0 12.785,-2.439 17.662,-7.316 l 76.166,-76.166 c 9.755,-9.756 9.755,-25.57 0,-35.324 L 611.155,477.598 Z"
   id="path105" />
		<path
   d="m 904.345,127.995 -99.869,99.869 c -7.984,7.984 -7.984,20.93 0,28.914 l 76.972,76.972 c 8.594,8.593 22.826,7.907 30.371,-1.619 45.178,-57.037 53.729,-133.579 25.659,-198.004 -5.728,-13.146 -22.995,-16.272 -33.133,-6.132 z"
   id="path107" />
		<path
   d="M 139.613,601.295 259.988,721.67 c 14.625,14.625 14.625,38.338 0,52.963 L 139.737,894.885 c -9.221,9.221 -6.385,24.828 5.497,30.203 71.512,32.355 158.606,19.148 217.39,-39.635 55.014,-55.014 69.968,-135.395 44.888,-204.213 l 74.476,-74.475 -111.489,-111.49 -72.694,72.693 C 248.79,548.28 193.371,549.384 145.076,571.29 c -11.802,5.351 -14.624,20.845 -5.463,30.005 z"
   id="path109" />
		<path
   d="m 81.69,629.866 c -45.177,57.037 -53.728,133.58 -25.659,198.004 5.727,13.146 22.994,16.271 33.133,6.133 l 99.869,-99.869 c 7.984,-7.984 7.984,-20.93 0,-28.914 l -76.972,-76.971 c -8.593,-8.594 -22.826,-7.909 -30.371,1.617 z"
   id="path111" />
		<path
   d="m 138.849,461.443 c 11.956,11.956 31.339,11.956 43.295,0 l 5.772,-5.772 c 11.956,-11.955 11.956,-31.339 0,-43.294 l -11.545,-11.545 22.731,-22.73 -106.793,-106.794 -22.73,22.73 -11.545,-11.545 c -11.956,-11.955 -31.339,-11.955 -43.295,0 l -5.772,5.773 c -11.956,11.956 -11.956,31.339 0,43.294 z"
   id="path113" />
		<path
   d="M 304.036,65.967 409.493,171.424 C 531.076,90.415 599.039,158.365 505.571,64.898 440.93,0.256 359.305,30.842 304.036,65.967 Z"
   id="path115" />
		<path
   d="m 271.62,68.906 c -5.978,-5.978 -13.812,-8.967 -21.647,-8.967 -7.835,0 -15.67,2.989 -21.647,8.967 L 98.441,198.79 c -11.956,11.955 -11.956,31.339 0,43.295 l 11.545,11.545 106.793,106.793 11.545,11.545 c 5.978,5.978 13.812,8.967 21.647,8.967 1.894,0 3.788,-0.179 5.655,-0.528 4.374,-0.817 8.603,-2.592 12.352,-5.324 1.272,-0.929 2.491,-1.965 3.64,-3.113 l 5.462,-5.462 111.49,-111.491 8.838,-8.838 4.094,-4.093 c 1.631,-1.631 3.031,-3.405 4.218,-5.275 7.507,-11.836 6.105,-27.696 -4.218,-38.02 L 388.931,186.22 283.044,80.33 Z"
   id="path117" />
	</g>
</g>
<g
   id="g123"
   transform="matrix(0.09,0,0,0.09,-39.311884,-39.455118)">
</g>
<g
   id="g125"
   transform="matrix(0.09,0,0,0.09,-39.311884,-39.455118)">
</g>
<g
   id="g127"
   transform="matrix(0.09,0,0,0.09,-39.311884,-39.455118)">
</g>
<g
   id="g129"
   transform="matrix(0.09,0,0,0.09,-39.311884,-39.455118)">
</g>
<g
   id="g131"
   transform="matrix(0.09,0,0,0.09,-39.311884,-39.455118)">
</g>
<g
   id="g133"
   transform="matrix(0.09,0,0,0.09,-39.311884,-39.455118)">
</g>
<g
   id="g135"
   transform="matrix(0.09,0,0,0.09,-39.311884,-39.455118)">
</g>
<g
   id="g137"
   transform="matrix(0.09,0,0,0.09,-39.311884,-39.455118)">
</g>
<g
   id="g139"
   transform="matrix(0.09,0,0,0.09,-39.311884,-39.455118)">
</g>
<g
   id="g141"
   transform="matrix(0.09,0,0,0.09,-39.311884,-39.455118)">
</g>
<g
   id="g143"
   transform="matrix(0.09,0,0,0.09,-39.311884,-39.455118)">
</g>
<g
   id="g145"
   transform="matrix(0.09,0,0,0.09,-39.311884,-39.455118)">
</g>
<g
   id="g147"
   transform="matrix(0.09,0,0,0.09,-39.311884,-39.455118)">
</g>
<g
   id="g149"
   transform="matrix(0.09,0,0,0.09,-39.311884,-39.455118)">
</g>
<g
   id="g151"
   transform="matrix(0.09,0,0,0.09,-39.311884,-39.455118)">
</g>
</svg>
