<?xml version="1.0" encoding="UTF-8" standalone="no"?>
<!-- Created with Inkscape (http://www.inkscape.org/) -->

<svg
   version="1.1"
   id="svg1"
   width="863.16357"
   height="1164.0015"
   viewBox="0 0 863.16358 1164.0015"
   sodipodi:docname="elpaca-logo.jpg"
   inkscape:export-filename="../.emacs.d/elpaca/sources/elpaca/images/elpaca.svg"
   inkscape:export-xdpi="96"
   inkscape:export-ydpi="96"
   inkscape:version="0.0"
   xmlns:inkscape="http://www.inkscape.org/namespaces/inkscape"
   xmlns:sodipodi="http://sodipodi.sourceforge.net/DTD/sodipodi-0.dtd"
   xmlns="http://www.w3.org/2000/svg"
   xmlns:svg="http://www.w3.org/2000/svg">
  <defs
     id="defs1">
    <clipPath
       clipPathUnits="userSpaceOnUse"
       id="clipPath53">
      <path
         style="display:inline;fill:#ff2f2f;fill-opacity:1;stroke-width:1.00164"
         d="m 435.79716,1193.412 c -8.3359,-1.0885 -19.7421,-6.017 -26.1853,-11.3144 l -5.3147,-4.3697 -11.1989,-0.6192 c -18.2581,-1.0096 -36.0111,-7.2995 -48.8957,-17.3237 -4.4241,-3.442 -6.5136,-4.4152 -9.5079,-4.4289 -17.5817,-0.08 -37.9363,-11.3799 -47.2964,-26.2572 -3.1062,-4.9372 -4.0395,-5.6627 -10.0083,-7.7791 -8.5937,-3.0473 -23.0462,-10.2899 -30.6024,-15.3361 -7.7964,-5.2066 -13.4887,-10.6963 -19.55844,-18.8625 -4.9061,-6.6008 -4.9067,-6.6011 -11.7656,-7.8289 -7.62183,-1.3643 -20.34783,-6.553 -26.43433,-10.7778 -11.981,-8.3163 -22.4615,-27.3964 -24.3804,-44.3853 l -0.6654,-5.8906 -10.641,-5.2037 c -22.8693,-11.1835 -37.4067,-28.20304 -44.1064,-51.63736 -3.5821,-12.52966 -3.0098,-30.63566 1.4417,-45.61196 0.288,-0.969 -1.7685,-3.0734 -5.7829,-5.9176 -27.802398,-19.6976 -37.854598,-59.34095 -24.561298,-96.86265 l 2.1409,-6.0428 -7.9801,-7.9931 c -4.7557,-4.7635 -9.5292,-10.7677 -11.814,-14.8599 -16.1966,-29.0095 -14.6995,-68.834 3.5923,-95.5618 1.5773,-2.3048 2.8679,-4.6046 2.8679,-5.11069 0,-0.5061 -1.8838,-1.77111 -4.1863,-2.8111 -2.3026,-1.0399 -7.6303,-5.2812 -11.8394,-9.425 -9.1642,-9.0218 -14.3403,-18.7973 -18.5858,-35.1017 -3.2708,-12.5612 -4.3305,-32.5953 -2.4723,-46.74271 1.3903,-10.58489 6.8482,-27.58879 11.5424,-35.96029 5.8502,-10.4329 20.1928,-22.93011 28.7941,-25.0892 1.5138,-0.38 2.7523,-0.82181 2.7523,-0.9819 0,-0.16011 -3.3655,-5.26751 -7.4788,-11.34991 -31.3742,-46.3929 -46.7411,-88.61559 -51.6623,-141.9491 -1.3364,-14.4829 -0.7247,-51.06569 0.9902,-59.2153 0.5801,-2.7568 1.9907,-10.42559 3.1347,-17.0418 2.3626,-13.6636 7.6422,-34.5828 11.5216,-45.6517 1.4416,-4.11329 3.2121,-9.2831 3.9343,-11.4886 7.3773,-22.5287 31.9039,-71.6784 46.5231,-93.2287 4.9634,-7.3167 10.0513,-15.4981 10.0513,-16.1626 0,-0.3604 2.5683,-4.089 5.7074,-8.2857 3.139098,-4.1967 7.079898,-9.5568 8.757198,-11.9112 2.9243,-4.1044 9.5504,-12.863395 15.3321,-20.266985 1.5016,-1.9228 4.3201,-5.3061 6.2633,-7.5184 1.9432,-2.2123 5.3173,-6.2779 7.4981,-9.034704 6.8858,-8.70429 20.6023,-22.445289 27.5696,-27.618785 13.3651,-9.9241 28.4553,-14.2841 38.2416,-11.049 5.4787,1.811 11.98583,8.2084 15.53803,15.275996 4.4331,8.820199 8.7121,26.804793 10.3359,43.440983 2.5809,26.442795 1.3756,84.432395 -2.6773,128.816095 -3.0422,33.3148 -9.985,89.0954 -15.53423,124.8062 -5.5959,36.0115 -11.0836,68.1592 -12.6252,73.961 -0.3467,1.3048 1.4366,0.5458 6.6408,-2.8262 15.76933,-10.2177 28.30303,-14.136 54.83997,-17.1439 2.3395,-0.2651 4.2535,-0.8356 4.2535,-1.2677 0,-0.4321 1.7668,-3.5236 3.9261,-6.87 7.7731,-12.0461 24.8946,-23.2325 42.8889,-28.0217 8.1577,-2.1711 11.9982,-2.601 23.7434,-2.6578 11.965,-0.058 14.9618,0.2571 20.517,2.1564 l 6.5054,2.224 1.5012,-2.2317 c 0.8257,-1.2274 4.7066,-5.4473 8.6244,-9.3775 5.7756,-5.7939 8.5824,-7.7542 14.8368,-10.3622 11.2763,-4.7019 20.9964,-6.9105 37.875,-8.606 53.5052,-5.3744 92.0947,3.9451 106.3301,25.6792 3.6664,5.5976 3.708,5.6246 6.5125,4.2233 9.0299,-4.5121 27.5598,-5.4904 43.2665,-2.2843 23.9658,4.8919 41.7538,15.874 49.3979,30.4978 l 2.7522,5.2653 10.4073,0.674 c 5.7239,0.3707 14.0845,1.3708 18.5791,2.2225 13.496,2.5575 32.4694,10.45801 39.0755,16.27121 2.2924,2.0171 2.719,5.4759 -4.6788,-37.9432 -17.6349,-103.5041 -27.0002,-199.4853 -25.3826,-260.1384 1.1937,-44.759795 7.1787,-71.828588 18.3693,-83.080684 6.0018,-6.0348 10.6814,-8.02451 18.82,-8.00231 8.5403,0.023 16.4827,3.04761 26.3295,10.02591 7.2312,5.1246 22.6628,20.127295 28.2095,27.425495 1.8856,2.48109 5.5236,6.847594 8.0845,9.703294 2.5608,2.8558 6.8194,8.269 9.4636,12.0295 2.6441,3.76059 7.1531,9.99849 10.0199,13.861995 4.5062,6.073 14.5936,21.0181 21.9854,32.5725 8.9182,13.9407 12.1551,19.3161 17.6351,29.2864 8.5,15.4643 11.9423,22.4421 21.8553,44.3009 6.3764,14.0605 16.494,44.979 20.5329,62.7472 12.4432,54.7402 10.6918,103.877 -5.5215,154.9009 -8.018,25.2336 -21.8884,53.3643 -39.1182,79.337 l -12.7438,19.2102 5.6394,2.2925 c 12.139,4.9349 23.21,16.7279 30.0086,31.9654 9.0492,20.2819 10.8152,54.1719 4.0905,78.4994 -3.7228,13.4681 -9.04,23.1589 -17.1809,31.313 l -7.3682,7.3803 4.213,5.1443 c 23.256,28.397 26.4929,69.6172 8.0594,102.6331 -3.5885,6.4274 -10.105,13.8723 -16.8918,19.2985 l -3.798,3.0366 2.1159,5.3768 c 1.1638,2.9573 2.9458,9.0025 3.9603,13.4338 8.0387,35.11804 -3.4904,68.54735 -29.3518,85.10685 -4.8317,3.0938 -5.7608,4.1309 -5.3334,5.9529 7.3869,31.4904 -1.7834,61.88338 -24.9324,82.63318 -5.3588,4.80343 -11.0942,8.68053 -25.2224,17.05053 -0.7092,0.4201 -2.1395,4.945 -3.1783,10.0552 -3.0993,15.2446 -11.5256,29.7393 -22.2698,38.3078 -9.8853,7.8837 -28.0457,14.9939 -38.4072,15.0374 -3.9082,0.016 -4.3402,0.3463 -9.5079,7.2616 -11.0924,14.844 -31.0109,27.5554 -53.9748,34.4454 -5.5954,1.6788 -6.5264,2.3596 -9.4394,6.9021 -9.5019,14.8177 -27.6131,25.0268 -46.7258,26.3389 -7.5357,0.5174 -8.4288,0.8305 -13.9193,4.8789 -14.1912,10.464 -30.5626,16.2286 -48.6763,17.1397 l -11.1929,0.563 -4.8204,4.0245 c -5.9685,4.9833 -15.5941,9.4712 -24.2595,11.3111 -7.201,1.5289 -9.5422,1.5757 -18.7392,0.3749 z"
         id="path53"
         inkscape:label="clipping" />
    </clipPath>
  </defs>
  <sodipodi:namedview
     id="namedview1"
     pagecolor="#471b45"
     bordercolor="#000000"
     borderopacity="0.25"
     inkscape:showpageshadow="2"
     inkscape:pageopacity="0.0"
     inkscape:pagecheckerboard="0"
     inkscape:deskcolor="#d1d1d1"
     showgrid="false"
     inkscape:zoom="0.46942708"
     inkscape:cx="428.18152"
     inkscape:cy="522.97793"
     inkscape:window-width="1920"
     inkscape:window-height="1030"
     inkscape:window-x="0"
     inkscape:window-y="0"
     inkscape:window-maximized="1"
     inkscape:current-layer="g1">
    <inkscape:page
       x="0"
       y="0"
       width="863.16357"
       height="1164.0015"
       id="page2"
       margin="0"
       bleed="0" />
  </sodipodi:namedview>
  <g
     inkscape:groupmode="layer"
     inkscape:label="Image"
     id="g1"
     transform="translate(-18.89916,-26.791735)"
     style="display:inline">
    <g
       id="g25"
       transform="translate(3.620934,-3.4611278)"
       clip-path="url(#clipPath53)">
      <g
         id="g20"
         transform="matrix(0.99999997,0,0,0.99312632,787.11867,-125.80271)"
         inkscape:label="fill"
         style="display:inline">
        <g
           id="g19"
           transform="translate(261.34171,153.06859)">
          <g
             id="g18"
             style="display:inline">
            <path
               style="display:inline;fill:#dec9a2;stroke-width:0.99"
               d="m -614.65297,1168.6936 c -6.52875,-0.8371 -20.3843,-7.2396 -25.23421,-11.6605 -2.94584,-2.6852 -3.95792,-2.9576 -13.365,-3.5964 -12.04236,-0.8178 -23.38934,-3.4938 -32.94789,-7.7704 -7.45025,-3.3333 -16.30451,-8.7241 -20.2848,-12.3502 -1.92664,-1.7551 -3.65617,-2.2507 -7.92,-2.2697 -7.76556,-0.035 -13.18265,-1.4831 -22.68328,-6.0658 -9.2763,-4.4746 -16.04919,-10.2614 -22.41855,-19.155 -3.75319,-5.2405 -4.99198,-6.2105 -10.51875,-8.2367 -9.11523,-3.3418 -25.15392,-11.6109 -32.00462,-16.5007 -6.57736,-4.6948 -10.82921,-9.0312 -17.65388,-18.005 -4.20849,-5.5339 -4.93129,-6.0487 -9.30679,-6.6291 -5.75388,-0.7633 -16.41262,-4.5401 -23.12858,-8.1953 -15.01731,-8.1735 -26.98453,-27.3895 -29.18827,-46.868 -0.59182,-5.23076 -1.03306,-6.23321 -3.08741,-7.01432 -6.37194,-2.42263 -13.91019,-6.2963 -18.9684,-9.74744 -6.87219,-4.68884 -17.71397,-15.24768 -21.89256,-21.32123 -11.50737,-16.72548 -16.10206,-38.00315 -12.40817,-57.46229 0.9303,-4.9005 1.89427,-10.02375 2.14226,-11.385 0.37719,-2.07009 -0.28215,-2.93199 -4.0296,-5.26849 -6.22096,-3.87852 -17.40231,-16.12828 -21.07026,-23.08351 -11.6133,-22.02172 -13.30333,-47.76241 -4.70151,-71.60884 1.33006,-3.68696 2.41817,-7.17502 2.41817,-7.7513 0,-0.57618 -2.63469,-3.56074 -5.85496,-6.63231 -6.86209,-6.54529 -14.1473,-17.02562 -17.40054,-25.03185 -7.42173,-18.26491 -8.91653,-40.92086 -3.96584,-60.10866 1.7922,-6.94624 8.01732,-20.40163 12.35698,-26.70912 l 3.03792,-4.4154 -5.22433,-2.64488 c -2.87328,-1.45471 -8.36827,-5.81189 -12.21096,-9.68269 -9.8747,-9.94703 -14.8354,-20.64645 -19.787,-42.67791 -1.4708,-6.5443 -2.1519,-22.27788 -1.3283,-30.69 3.2052,-32.73881 15.66162,-55.37377 36.00659,-65.42881 7.97732,-3.94267 7.83753,-3.57716 3.37421,-8.82119 -0.92693,-1.089 -2.50727,-3.36402 -3.51202,-5.05564 -1.00465,-1.69161 -4.09197,-6.36936 -6.8606,-10.395 -2.76864,-4.02563 -6.37838,-9.76961 -8.02168,-12.76436 -3.17087,-5.77863 -5.68603,-10.19819 -9.0146,-15.84 -6.555,-11.11038 -18.9327,-46.85007 -22.8956,-66.10923 -5.6772,-27.59031 -6.9866,-41.06629 -6.5142,-67.04577 0.7079,-38.94839 8.8141,-75.88935 26.3407,-120.03752 4.64418,-11.69863 17.361,-37.98476 23.34852,-48.2625 1.26878,-2.178 3.97277,-6.9988 6.0088,-10.71288 3.22334,-5.87977 17.19383,-27.3969 32.10897,-49.453539 4.37164,-6.464868 14.33965,-19.854291 17.62794,-23.678532 0.81675,-0.949876 4.82625,-5.853158 8.91,-10.896176 17.968,-22.188682 37.52209,-38.304852 52.7468,-43.472999 7.59716,-2.57894 18.08176,-2.161556 24.20778,0.963716 10.62795,5.421992 9.9411,40.254556 13.44164,60.491166 4.26531,24.657334 -1.80324,67.680614 -5.73453,107.489674 -0.56469,5.71725 2.06452,18.00617 1.15838,23.95122 -25.67897,168.47577 53.1951,-143.143039 -17.08259,190.11477 l -0.6825,3.23631 5.32501,-3.58835 c 14.45736,-9.74239 37.61505,-17.16769 53.83501,-17.26174 4.77774,-0.0277 5.01178,-0.16275 6.72388,-3.87912 2.45847,-5.33639 6.82833,-10.61527 13.35728,-16.13601 19.54072,-16.5231 55.88273,-23.88236 77.45641,-15.68496 l 4.61726,1.75438 2.71518,-4.29165 c 3.10533,-4.90842 10.03552,-11.3062 16.10659,-14.86931 10.73389,-6.29947 28.45638,-10.31659 54.2534,-12.29748 45.51268,-3.4948 83.40948,7.37629 95.06881,27.27133 l 2.45292,4.18562 5.19414,-1.74863 c 13.02929,-4.3863 30.39795,-4.36333 47.70522,0.0634 19.44162,4.97237 37.70356,17.86623 42.77682,30.20272 l 1.83209,4.455 8.415,0.01 c 17.87752,0.0109 41.61683,6.50509 53.955,14.7605 2.178,1.45728 4.46391,2.95862 5.07979,3.3364 0.7916,0.4855 0.71963,-1.41233 -0.24582,-6.47648 -5.78516,-30.34716 -19.40746,-118.94919 -22.63892,-147.24805 -0.83942,-7.35075 -2.38372,-20.04752 -3.43174,-28.21502 -1.78239,-13.8897 -3.56954,-34.53883 -5.96772,-68.95001 -2.90515,-41.68546 0.33185,-93.672271 6.80259,-109.24997 4.72398,-11.372794 7.63943,-16.093896 12.97682,-21.014216 5.02346,-4.630853 9.4445,-6.442563 17.04928,-6.986677 10.98514,-0.785991 20.65744,2.890295 33.44072,12.710283 18.86039,14.488314 42.92511,44.102182 73.75322,90.7599 5.9401,8.9902 28.21678,47.84149 28.21678,49.21101 0,0.19695 1.84259,4.30044 4.09464,9.11889 24.07729,51.51547 35.57456,97.84616 35.58585,143.40081 0.01,27.16461 -2.76854,48.3027 -10.00811,76.23 -5.41243,20.87881 -15.36243,45.97164 -24.7797,62.49138 -2.52123,4.42282 -4.8607,8.76239 -5.19879,9.64359 -0.63964,1.66666 -14.11948,22.14729 -21.8891,33.25697 l -4.47014,6.39193 5.37085,2.18513 c 6.50677,2.64726 8.4938,3.99891 14.7703,10.04712 5.52747,5.32629 12.22927,15.2059 15.2656,22.50388 9.8606,23.7009 10.69923,56.31091 2.10781,81.95478 -4.11206,12.27352 -7.97207,18.73703 -16.03404,26.8484 l -6.7916,6.83308 2.87477,3.06692 c 7.77932,8.29937 15.87405,24.33796 19.09729,37.83859 2.73815,11.46898 2.2775,32.15027 -0.9896,44.42825 -4.25393,15.98672 -12.86861,30.0967 -23.3939,38.31706 -2.97663,2.32472 -5.41213,4.52995 -5.41213,4.9003 0,0.37046 0.83437,2.61994 1.85407,4.99881 2.88654,6.73398 5.82991,20.20006 6.56459,30.03314 2.01099,26.91637 -10.76843,54.60576 -31.18866,67.57664 -2.99475,1.90229 -5.58786,3.57351 -5.76249,3.71389 -0.17464,0.14038 0.43322,3.24859 1.35075,6.90723 2.55777,10.19888 1.62548,28.9279 -1.99455,40.06787 -4.93654,15.19126 -10.12325,23.60063 -21.2852,34.50964 -8.12513,7.94109 -11.90762,10.74487 -22.04819,16.34352 -6.86902,3.79249 -6.92099,3.86872 -8.177,12.01194 -0.82695,5.3609 -4.19849,14.8136 -7.22918,20.2681 -10.57875,19.0392 -29.79098,31.541 -51.61187,33.585 l -6.37263,0.5969 -3.73398,5.445 c -9.50014,13.8536 -27.84989,26.1702 -50.84066,34.125 -8.83664,3.0574 -10.15156,3.8278 -12.24264,7.1726 -3.40995,5.4547 -9.68636,11.752 -16.46736,16.5225 -5.2571,3.6984 -7.96792,5.0625 -17.14928,8.6295 -1.26462,0.4914 -6.61062,1.3776 -11.88,1.9696 -10.81337,1.2148 -9.57587,0.7469 -19.02344,7.1922 -13.15037,8.9716 -29.68099,14.245 -46.85462,14.9473 -8.5436,0.3494 -8.92604,0.4701 -14.355,4.5323 -13.17225,9.856 -26.8492,13.1577 -44.91056,10.8419 z M -417.6302,774.89125 c 5.1877,-3.39917 6.59142,-11.67141 2.90793,-17.1373 -2.83229,-4.20295 -5.98158,-5.82011 -11.36985,-5.83872 -9.02316,-0.0317 -14.94296,10.41638 -10.53737,18.59705 3.51668,6.53014 12.54162,8.61013 18.99929,4.37897 z m -339.76443,0.12731 c 3.39629,-2.22532 5.35956,-6.36669 5.35956,-11.3053 0,-3.49421 -0.60687,-4.7325 -3.96564,-8.09127 -3.85091,-3.85091 -4.12494,-3.95248 -9.47302,-3.50896 -4.46123,0.36996 -6.07256,1.02198 -8.48281,3.43213 -5.50658,5.50658 -4.54816,15.38282 1.87961,19.36816 3.52213,2.18384 11.42351,2.24047 14.6823,0.10524 z"
               id="path16"
               sodipodi:nodetypes="ssssssssssssssssssssssssssscsssssssssssssssssssssssscssssscsssscssscsssssssssssssscsssscssssscsssssssssssssssscsssssssssssssssssssssss" />
          </g>
          <path
             style="display:inline;fill:#b89567"
             d="m -618.37857,1170.7734 c -6.88089,-1.675 -16.01694,-6.3 -21.05059,-10.6566 -4.13325,-3.5773 -4.39651,-3.6523 -15.09899,-4.3023 -18.17859,-1.1041 -36.12495,-7.2979 -48.85042,-16.8597 -5.06649,-3.8069 -6.93351,-4.6043 -12,-5.1249 -19.7968,-2.0344 -35.46761,-10.9471 -46.0778,-26.2068 -3.71528,-5.3434 -4.4315,-5.8397 -13.57612,-9.4072 -22.14733,-8.6401 -36.60506,-18.9717 -47.21546,-33.7406 -3.42224,-4.7635 -3.70638,-4.9219 -12.81444,-7.1432 -5.12303,-1.2494 -12.63944,-3.8709 -16.70315,-5.8254 -16.83762,-8.0986 -30.1981,-28.0449 -31.83094,-47.5214 l -0.56347,-6.72096 -11.10931,-5.4551 c -22.56955,-11.0825 -38.09089,-29.05605 -44.16988,-51.14845 -3.33249,-12.1111 -2.87012,-31.8571 1.07714,-46 0.43588,-1.5618 -0.4266,-2.6168 -3.93595,-4.8145 -7.40421,-4.6369 -18.86804,-17.6297 -22.8367,-25.8825 -6.17839,-12.848 -7.92206,-19.9205 -8.48579,-34.4194 -0.57554,-14.8027 0.4152,-22.2581 4.74852,-35.7331 l 2.87901,-8.9526 -2.69284,-2.0349 c -11.67577,-8.8228 -20.71402,-23.3037 -25.37976,-40.663 -1.93033,-7.182 -2.28447,-10.9811 -2.28382,-24.5 6.5e-4,-13.517 0.34317,-17.1883 2.2071,-23.6567 2.8723,-9.9679 6.39745,-17.8555 11.45144,-25.6231 2.24728,-3.4539 3.91186,-6.423 3.69908,-6.598 -0.21278,-0.1749 -2.61238,-1.399 -5.33245,-2.7202 -7.45264,-3.6197 -17.41624,-14.13521 -22.25874,-23.49163 -5.1497,-9.94999 -9.0788,-24.6057 -10.5319,-39.28472 -2.8069,-28.35426 5.7391,-59.41629 20.61605,-74.933 6.16749,-6.43271 20.58466,-15.68569 25.52702,-16.92431 8.41277,-0.20707 -9.25464,-8.92058 -12.30039,-13.49129 -12.06098,-17.94286 -21.51838,-33.76445 -27.51858,-48.27708 -1.8192,-4.4 -3.7121,-8.9 -4.2066,-10 -6.654,-14.80373 -15.4436,-51.46407 -17.9816,-75 -1.6345,-15.15715 -1.6187,-44.65302 0.032,-59 3.2928,-28.62492 11.9097,-61.98305 23.7328,-91.87594 6.0396,-15.27017 24.63594,-53.916 27.72759,-57.62187 0.68927,-0.82621 3.59274,-5.67812 6.45217,-10.78202 6.27578,-11.20194 23.28337,-37.69857 25.17453,-39.220165 0.34179,-0.275 2.65075,-3.425 5.13103,-7 7.15927,-10.31917 24.66,-33.081762 26.90931,-35.000002 0.32246,-0.275 2.7351,-3.2 5.36141,-6.5 11.92927,-14.98932 31.20273,-30.83003 43.37253,-35.64756 7.31409,-2.89536 19.874,-3.15281 25.29928,-0.51859 21.95006,10.65777 22.99785,50.72275 18.44755,134.966677 -3.17651,58.8096 -7.10213,146.05522 -23.5988,240.19947 -1.06013,6.05 -1.93049,11.35912 -1.93414,11.79804 -0.004,0.43892 1.90587,-0.51427 4.24337,-2.1182 6.39855,-4.39051 17.29483,-9.58551 26.25,-12.51516 8.17195,-2.67341 24.21156,-5.65154 30.5,-5.66303 3.22943,-0.006 3.72437,-0.4358 6.40241,-5.56097 6.68441,-12.79248 25.28548,-25.52662 44.59759,-30.53113 15.48492,-4.01274 36.91104,-3.68907 47.61062,0.71922 3.08877,1.27259 3.13351,1.24629 6.36564,-3.74174 6.183,-9.54199 19.65865,-17.85071 35.4993,-21.88791 18.39154,-4.68732 57.78843,-6.77699 76.52444,-4.05897 26.30121,3.81551 45.74781,13.17496 54.07476,26.02563 2.41257,3.72322 3.72752,4.91505 4.86564,4.41005 10.30918,-4.57439 30.20866,-5.66036 45.58128,-2.48752 23.20883,4.79022 40.99026,16.1543 48.28942,30.86169 l 2.60554,5.25 7.04168,0.006 c 19.89091,0.0167 43.90242,6.93881 59.40902,17.12673 l 3.36734,2.21236 -0.61022,-2.92249 c -5.62652,-26.94673 -18.72931,-111.70637 -23.09887,-149.4226 -6.04926,-52.2148 -8.24669,-78.13577 -9.5795,-113 -2.20075,-57.568455 2.41801,-93.875707 14.2762,-112.222637 5.68548,-8.79655 14.57485,-13.75897 24.6699,-13.77179 6.54597,-0.008 17.44716,3.60708 22.4957,7.46071 2.45143,1.87122 5.73611,4.0636 7.29929,4.87195 3.57178,1.84704 20.2692,18.73915 28.33143,28.66177 17.82375,21.936652 25.78381,32.764502 40.80073,55.499997 18.61154,28.17775 29.89699,48.64214 44.55285,80.78965 5.93595,13.02045 16.15943,42.98678 20.54169,60.21035 17.80775,69.98967 8.88846,143.88617 -25.1659,208.5 -6.08679,11.5489 -13.23331,23.4371 -19.19732,31.93462 -10.46814,14.91502 -12.70044,18.2379 -12.39283,18.44735 0.18819,0.12814 3.26717,1.64529 6.84217,3.37144 17.79111,8.59025 30.35249,28.35685 35.10837,55.24659 1.69452,9.58081 1.70794,31.30139 0.0253,41 -3.56506,20.54906 -10.10171,35.10639 -20.26395,45.12843 l -6.93149,6.8359 4.90876,6.2678 c 12.21342,15.5949 19.12883,35.5593 19.14407,55.2679 0.0199,25.7164 -9.81171,49.1723 -26.51518,63.2591 l -6.23604,5.2591 2.42982,6.0157 c 4.75728,11.7778 6.57092,23.0977 6.00269,37.4661 -0.58644,14.8286 -2.15183,21.5656 -7.66783,33 -5.0726,10.5152 -13.00185,19.9188 -21.95281,26.0348 l -7.24959,4.9534 0.59789,4.0059 c 3.1148,20.8695 3.0353,26.5923 -0.56193,40.4513 -3.97135,15.3004 -10.70974,26.352 -23.70397,38.87675 -6.02873,5.8108 -11.57625,9.977 -18.38413,13.8062 -7.56481,4.255 -9.75,5.9614 -9.75,7.6139 0,4.88106 -3.45839,15.86686 -7.79385,24.75756 -7.72988,15.8516 -21.32382,27.2508 -38.70615,32.4568 -4.4,1.3178 -10.81821,2.699 -14.2627,3.0693 -6.22883,0.6696 -6.28197,0.7023 -9.82787,6.0444 -9.6484,14.5359 -33.66985,29.9036 -57.4009,36.722 -3.59387,1.0326 -4.93194,2.0816 -6.69557,5.249 -7.83938,14.0793 -27.46946,25.392 -46.84103,26.9943 -7.58983,0.6277 -8.37934,0.9332 -16.47193,6.3733 -15.17576,10.2016 -29.22293,14.9296 -47,15.8193 l -10.5,0.5255 -5.9171,4.4242 c -6.88641,5.1489 -12.19515,7.7254 -20.23003,9.8182 -6.8151,1.7751 -20.79891,1.8336 -27.85287,0.1165 z m 27.79683,-41.075 c 6.74743,-2.4474 11.60259,-5.2643 14.95724,-8.678 2.31508,-2.3558 7.30209,-3.5452 18.24593,-4.3516 18.16166,-1.3384 33.61252,-6.9977 45.0318,-16.4941 5.9061,-4.9117 6.04185,-4.9636 13.04599,-4.9887 14.77961,-0.053 26.86218,-7.0808 34.41889,-20.0197 2.21842,-3.7985 4.45067,-7.1641 4.96054,-7.4793 0.50988,-0.3151 3.45839,-1.0409 6.55226,-1.6128 18.83966,-3.4827 35.74707,-12.5534 46.86902,-25.1449 5.73692,-6.4949 5.6765,-6.4122 8.1215,-11.1181 3.62741,-6.9817 6.57558,-8.6485 15.32673,-8.6654 9.05109,-0.017 19.11534,-2.1888 24.10508,-5.2006 7.9146,-4.7773 16.06816,-15.6617 20.43901,-27.28456 1.03416,-2.75 2.46914,-8.8249 3.18885,-13.4999 0.71971,-4.675 1.33821,-8.57575 1.37445,-8.66845 0.0362,-0.093 2.95931,-1.1313 6.49572,-2.3082 14.06809,-4.6815 29.05519,-15.0596 36.34169,-25.1654 18.07509,-25.06867 12.92194,-34.17 16.28187,-33.8058 1.87306,0.20303 1.11745,-1.9758 -1.0534,-9.8096 -2.65909,-9.5956 -2.56921,-11.8235 0.55967,-13.8736 1.40782,-0.9224 2.16428,-1.9453 1.68104,-2.273 -1.70404,-1.1557 -5.38409,-10.0602 -5.06445,-12.2542 0.21426,-1.4707 2.18375,-3.31 5.82374,-5.4386 6.81665,-3.9863 16.46155,-12.3597 20.2323,-17.5651 5.10889,-7.0526 9.26395,-16.3691 11.2072,-25.1289 0.38217,-1.7228 1.05034,-2.5244 1.74576,-2.0946 1.78515,1.1032 0.21125,-9.2278 -2.57687,-16.9146 -1.32925,-3.6647 -3.58492,-8.7531 -5.0126,-11.3075 -3.50301,-6.2675 -3.31612,-8.5528 1.01004,-12.3512 3.12547,-2.7442 3.40025,-3.3242 2.0626,-4.3536 -0.91539,-0.7045 -1.64854,-3.0873 -1.80207,-5.8569 -0.28839,-5.2027 0.0157,-5.6605 12.52996,-18.8681 7.32267,-7.7284 14.26903,-20.6596 16.63242,-30.9626 0.6939,-3.025 1.71358,-5.7932 2.26595,-6.1514 1.42524,-0.9245 -0.78547,-11.3901 -4.15498,-19.67 -3.01371,-7.4055 -7.12132,-13.8958 -13.87823,-21.9286 l -4.41613,-5.25 h -7.42267 -7.42268 v -11.3685 -11.36852 l 7.42045,-0.47621 c 11.52514,-0.73964 18.59644,-5.98187 24.92446,-18.47748 5.5103,-10.88089 7.11477,-19.2698 7.13583,-37.30932 0.0216,-18.49861 -1.0901,-24.39275 -6.88428,-36.5 -6.26962,-13.10071 -15.00411,-19.96412 -26.97964,-21.2001 l -5.61682,-0.57971 v -11.3408 -11.3408 l 4.83181,-7.2693 c 2.65749,-3.99811 6.56073,-9.96929 8.67385,-13.26929 2.11313,-3.3 5.50396,-8.54914 7.53518,-11.66477 10.1721,-15.60262 26.17479,-51.46072 32.72793,-73.33523 11.88399,-39.66901 14.73508,-79.02304 8.58499,-118.5 -3.15139,-20.22861 -9.64933,-43.76247 -20.17912,-73.08364 -3.49093,-9.72081 -20.62879,-45.09271 -28.06077,-57.91636 -10.83279,-18.69165 -37.23196,-58.398905 -42.98731,-64.657655 -0.93179,-1.01329 -4.94597,-6.23716 -8.9204,-11.60861 -11.8478,-16.012302 -28.0984,-32.825192 -38.33357,-39.659982 -3.57587,-2.38788 -8.10584,-4.39558 -11.5142,-5.10315 -5.08159,-1.05494 -5.8696,-0.9798 -8.23871,0.7855 -7.01416,5.22648 -12.15118,24.24422 -14.7684,54.673992 -1.23454,14.35374 -0.65417,68.502705 1.02968,96.069905 0.94066,15.4 1.92775,28.73287 2.19352,29.62861 0.26578,0.89573 1.36,10.79573 2.4316,22 5.77454,60.37669 19.59866,148.84865 30.70911,196.53302 2.21057,9.48743 2.41684,11.60542 1.37515,14.12028 -1.32578,3.20071 -4.69485,5.21809 -8.71432,5.21809 -3.19015,0 -8.37268,-5.05107 -8.38579,-8.17308 -0.0232,-5.53051 -9.72919,-20.72432 -12.24548,-19.16917 -0.58098,0.35907 -0.76157,0.17848 -0.4025,-0.4025 1.49278,-2.41538 -10.36051,-10.43882 -21.67498,-14.6717 -12.26492,-4.58845 -21.71843,-6.04098 -39.46102,-6.06317 -18.23876,-0.0228 -16.3015,0.84834 -17.73212,-7.97387 -1.02378,-6.31335 -4.03314,-11.0774 -10.13947,-16.05158 -6.97978,-5.68569 -10.44299,-7.47975 -21.33466,-11.0521 -7.45324,-2.44458 -10.10093,-2.79744 -21.5,-2.86537 -15.10983,-0.09 -20.58115,1.39342 -28.12196,7.62479 -8.281,6.84302 -13.61108,4.62168 -15.97547,-6.65788 -1.7273,-8.24026 -4.67878,-12.48903 -11.77045,-16.94404 -12.64301,-7.94239 -29.55253,-11.60686 -53.48149,-11.59001 -28.76015,0.0203 -49.28912,3.02322 -61.53547,9.00139 -10.33926,5.0472 -14.12393,9.63219 -15.79859,19.13934 -2.03015,11.52535 -8.53896,14.16774 -16.81657,6.82706 -13.62819,-12.08564 -45.20692,-10.17294 -65.91621,3.9925 -9.71535,6.64543 -14.10161,13.035 -15.6666,22.82187 l -0.67281,4.20752 h -10.2412 c -32.29511,0 -58.8423,12.29424 -71.25752,33 -1.15423,1.925 -2.87237,6.58115 -3.81807,10.34701 -0.9539,3.79846 -2.62893,7.69429 -3.76209,8.75 -4.88467,4.55076 -13.6655,0.53197 -13.6655,-6.25439 0,-1.78655 1.54526,-10.91951 3.43392,-20.29545 8.29033,-41.15608 17.43998,-94.48157 21.0268,-122.54717 0.80834,-6.325 2.1493,-16.45 2.9799,-22.5 11.68228,-70.84083 18.21114,-153.44891 7.11035,-224.499997 -1.76421,-8.08473 -6.76365,-19.72416 -9.3422,-21.75 -2.62667,-2.06366 -9.8759,-1.50011 -14.59513,1.13461 -7.80339,4.35659 -9.02577,5.1057 -10.41153,6.38052 -0.75638,0.69582 -2.90836,2.4345 -4.78219,3.86374 -4.25712,3.24707 -12.41992,11.02872 -12.41992,11.84 0,0.33316 -1.9125,2.53501 -4.25,4.89301 -2.3375,2.35801 -6.15582,6.72872 -8.48514,9.712702 -2.32933,2.98398 -7.05433,8.94368 -10.5,13.24377 -7.93763,9.90593 -17.88394,23.685855 -24.67219,34.181645 -1.42288,2.2 -2.82697,4.225 -3.12022,4.5 -0.60814,0.5703 -12.25292,19.05892 -16.58969,26.33975 -1.58552,2.66186 -3.86875,6.48686 -5.07384,8.5 -1.20508,2.01314 -3.26698,5.68525 -4.58198,8.16025 -1.315,2.475 -3.72064,6.975 -5.34586,10 -1.62522,3.025 -4.68066,9.325 -6.78988,14 -2.10921,4.675 -4.90322,10.62564 -6.20891,13.22364 -1.30568,2.598 -2.99944,6.423 -3.7639,8.5 -11.64452,31.63784 -16.36252,47.16049 -19.53632,64.27636 -1.1728,6.325 -2.5677,13.75 -3.0997,16.5 -3.157,16.31869 -3.7369,55.77724 -1.0435,71 0.5838,3.3 1.9771,11.48847 3.0961,18.19661 5.2334,31.37261 22.18417,74.07066 39.48925,99.47138 3.49676,5.13261 8.2968,12.48201 10.66676,16.33201 l 4.30901,7 0.33156,12.25 0.33156,12.25 h -3.90006 c -15.47403,0 -26.86753,11.81848 -33.52147,34.77181 -1.86529,6.43447 -2.23862,10.15554 -2.23017,22.22819 0.0152,21.76838 4.46823,36.71852 13.95898,46.8649 5.76414,6.16233 10.20072,8.33258 18.5296,9.06416 l 6.5,0.57094 0.28398,10.76413 0.28397,10.7641 -5.0496,6.2359 c -12.14584,14.9992 -18.47143,33.4631 -15.61841,45.5889 3.34048,14.1977 9.95461,25.1622 24.33158,40.3355 6.82349,7.2014 7.06044,8.1983 3.58699,15.0914 -1.32636,2.6322 -1.23918,2.9159 1.64034,5.3389 1.67264,1.4074 3.0401,3.5315 3.0388,4.7201 -10e-4,1.1886 -1.74775,6.2111 -3.88099,11.1611 -4.11492,9.5483 -6.8756,20.3495 -5.46463,21.3804 0.46639,0.3408 1.01298,1.2946 1.21466,2.1196 2.23607,9.1472 3.16282,12.2606 5.00545,16.8155 4.8211,11.9175 12.14141,20.4833 24.96975,29.2179 5.58293,3.8013 6.60379,4.9317 6.32166,7 -0.52403,3.84167 -5.73804,11.57309 -3.32876,12.4141 3.19112,1.0128 3.92802,4.20096 1.29686,12.7908 -2.19907,7.1792 -1.99149,7.6117 0.0122,15.9345 3.23563,13.4401 10.36652,26.9649 19.30737,36.6193 4.88809,5.2782 16.44547,12.5485 25.5867,16.0957 4.65417,1.806 9.40756,3.6549 10.5631,4.1086 1.81177,0.7113 2.17673,1.9041 2.65121,8.66415 0.5042,7.1835 2.23469,13.2046 6.36146,22.1341 1.5508,3.35556 9.85606,14.16306 11.81056,15.36886 0.59168,0.365 2.42104,1.8219 4.06523,3.2376 4.25794,3.666 10.77062,5.5964 18.9387,5.6134 8.58583,0.018 11.5156,1.3615 13.87758,6.3641 0.99314,2.1034 2.68064,4.7636 3.75,5.9114 1.06935,1.1478 1.94428,2.5837 1.94428,3.1908 0,1.6717 12.5022,13.2264 18.34646,16.9561 6.74866,4.3069 14.72147,7.8918 22.15354,9.9611 10.75389,2.9941 12.85669,4.3075 16.41076,10.2495 4.51531,7.5491 11.57369,14.2786 18.66175,17.7924 4.64391,2.3021 7.77835,3.0598 14.47468,3.4991 8.18969,0.5373 11.17274,1.5746 15.07585,5.2419 2.92251,2.746 10.54689,7.4893 14.87696,9.2553 2.475,1.0094 6.00103,2.4885 7.83561,3.287 4.02218,1.7505 12.41761,2.9922 25.05964,3.7062 9.77099,0.552 11.03523,1.0315 17.02992,6.46 9.87862,8.9454 25.68139,11.6139 39.37166,6.6482 z M -790.87857,839.68449 c -14.42108,-4.1577 -24.95639,-12.8572 -31.51534,-26.0237 -14.37141,-28.8494 1.40783,-62.7253 33.05689,-70.9688 12.12754,-3.1589 27.46284,-0.5871 38.41786,6.4427 21.52752,13.8142 29.15564,42.073 17.54085,64.981 -6.16337,12.1562 -15.10527,19.9833 -28.04509,24.5489 -7.97643,2.8143 -21.59565,3.2859 -29.45517,1.0199 z m 29.51022,-63.9636 c 6.85268,-2.8632 9.59713,-12.4143 5.48094,-19.0744 -6.30482,-10.2015 -23.99792,-5.2229 -23.98742,6.7496 0.005,5.3221 2.69283,9.8749 7.11775,12.0548 4.17998,2.0592 6.94958,2.1248 11.38873,0.27 z m 309.81719,63.0417 c -27.34877,-10.1639 -40.4672,-38.7713 -30.27326,-66.017 8.3964,-22.4414 35.02402,-36.1434 58.4043,-30.0536 19.1329,4.9834 32.89901,19.498 37.04243,39.0563 1.83097,8.6428 1.82927,11.1899 -0.0133,19.8883 -1.99211,9.4045 -5.85487,16.7346 -12.66833,24.04 -6.03196,6.4675 -12.15617,10.3316 -21.43313,13.5233 -8.30145,2.8561 -22.74397,2.6528 -31.05875,-0.4373 z m 32.95471,-62.9638 c 5.03245,-2.13 7.00298,-5.0309 7.50156,-11.0431 0.41403,-4.9926 0.20683,-5.6341 -2.91901,-9.0373 -5.91714,-6.4424 -14.11718,-6.4509 -19.76307,-0.021 -9.06597,10.3255 2.40136,25.5098 15.18052,20.1009 z m -278.53212,-88.392 -4.75,-0.3556 v -66.94522 -66.94521 h 8.44098 c 4.64254,0 8.69373,0.40895 9.00264,0.90877 0.30891,0.49983 0.61821,3.3622 0.68734,6.36084 l 0.12569,5.45207 3.35333,-3.71174 c 1.84434,-2.04145 6.17409,-5.24133 9.62168,-7.11084 6.05297,-3.28231 6.64807,-3.3991 17.3202,-3.3991 10.76313,0 11.25087,0.0983 18.66917,3.76468 5.41762,2.67753 8.79856,5.17555 11.70786,8.65039 9.93957,11.87172 14.07104,30.16773 11.03582,48.87154 -4.06052,25.02202 -20.7885,39.22112 -44.78559,38.01502 -9.57647,-0.4813 -15.98601,-2.73724 -22.42912,-7.89435 l -3.75,-3.00153 v 23.54708 c 0,21.7335 -0.13479,23.5524 -1.75,23.6147 -0.9625,0.037 -3.1,0.1725 -4.75,0.3008 -1.65,0.1284 -5.1375,0.073 -7.75,-0.1223 z m 52.05317,-55.14561 c 10.77207,-5.4955 15.87737,-17.29985 14.97157,-34.61691 -0.86879,-16.60955 -7.57729,-26.55739 -19.90358,-29.51442 -6.55079,-1.57151 -13.44592,-0.72501 -19.63323,2.41034 -5.18363,2.62674 -10.73921,8.17865 -12.30492,12.29676 -0.51315,1.34971 -0.93133,10.18721 -0.92927,19.63891 0.004,19.27914 0.46365,20.88866 7.49358,26.25065 8.52705,6.5039 21.51611,8.01886 30.30585,3.53467 z m -253.99027,17.42981 c -17.08873,-4.70659 -28.3184,-17.25822 -32.31378,-36.11779 -1.81907,-8.58664 -1.82618,-14.68585 -0.0289,-24.77015 1.80762,-10.14224 5.65275,-17.89658 11.97138,-24.14229 20.69454,-20.45571 57.19823,-17.35111 70.55893,6.00096 4.0001,6.99144 6.99945,19.05793 6.99945,28.159 v 7.34004 h -36.12781 -36.12781 l 0.67281,4.20752 c 2.28559,14.29331 12.39885,23.40339 27.22529,24.52471 9.61694,0.72733 18.39973,-1.59306 25.8901,-6.84008 3.05593,-2.14068 5.87375,-3.86703 6.26183,-3.83634 0.38807,0.0307 2.60368,2.46167 4.92358,5.40215 l 4.21798,5.34634 -4.37777,4.03529 c -5.02062,4.62784 -11.67791,8.23113 -19.4897,10.54884 -6.57698,1.9514 -23.39903,2.0302 -30.2556,0.1418 z m 38.1871,-60.49272 c 0,-3.88928 -4.06217,-12.70408 -7.24757,-15.72704 -5.37308,-5.09907 -9.33583,-6.57497 -17.71056,-6.59622 -4.63662,-0.0118 -8.94389,0.57998 -11.18143,1.53614 -6.02018,2.57256 -11.56066,8.33245 -13.81767,14.36485 -3.39635,9.07755 -5.37582,8.38476 23.95723,8.38476 25.16767,0 26,-0.0628 26,-1.96249 z m 295.5,61.07822 c -8.36437,-2.1961 -16.08519,-8.61613 -19.29362,-16.043 -2.19279,-5.07587 -2.1337,-16.46528 0.11568,-22.29485 2.46133,-6.37889 10.20501,-13.29382 17.14702,-15.31191 8.90922,-2.58999 16.50796,-3.45416 30.42552,-3.46018 l 13.39461,-0.006 -0.61785,-6.61638 c -1.1369,-12.17477 -5.87763,-17.63487 -16.47182,-18.9713 -8.28654,-1.04532 -17.35893,0.84418 -27.00611,5.62455 -4.59335,2.2761 -8.48655,3.98643 -8.65155,3.80074 -0.16501,-0.18568 -1.57933,-3.03761 -3.14293,-6.33761 -1.5636,-3.3 -2.9941,-6.30325 -3.17889,-6.67388 -0.53224,-1.06753 7.76142,-5.56289 15.34288,-8.31621 10.62686,-3.85929 21.74679,-5.16349 31.68053,-3.71563 14.3414,2.09028 21.3211,6.85547 26.66637,18.20572 2.55655,5.42863 2.59665,5.87629 3.09016,34.49782 l 0.5,28.99783 3.72713,-0.32247 c 7.15923,-0.61921 7.77287,0.0435 7.77287,8.39442 v 7.43264 h -12.04545 c -11.45567,0 -12.16564,-0.1202 -14.5,-2.45458 -1.68299,-1.68298 -2.45455,-3.56902 -2.45455,-6 0,-1.95 -0.225,-3.54545 -0.5,-3.54545 -0.275,0 -2.34592,1.84592 -4.60204,4.10204 -6.56839,6.56839 -13.60034,9.26779 -24.89796,9.55769 -5.225,0.134 -10.85,-0.1107 -12.5,-0.544 z m 28.02583,-17.67128 c 3.07218,-1.45337 7.1427,-4.5331 9.43808,-7.14079 3.8912,-4.42064 4.03609,-4.83576 4.03609,-11.56393 v -6.97868 l -15.75,0.43215 c -13.70242,0.37598 -16.29393,0.71478 -19.93392,2.60609 -7.54587,3.92078 -9.82993,9.98997 -6.55004,17.40471 2.59513,5.86672 6.46908,7.74341 16.04589,7.77323 5.79783,0.0181 8.43052,-0.50641 12.7139,-2.53278 z m 99.5865,16.97498 c -21.56296,-5.79898 -34.13337,-23.81739 -34.10046,-48.87953 0.0391,-29.77791 18.99316,-49.5399 47.51457,-49.5399 14.92616,0 26.46276,3.93656 34.19401,11.66782 l 4.34493,4.34493 -0.28269,11.24363 -0.28269,11.24362 -8.25,0.29044 -8.25,0.29044 v -7.96786 c 0,-7.41878 -0.18176,-8.11083 -2.63753,-10.04254 -3.54566,-2.78902 -11.58288,-5.07048 -17.86247,-5.07048 -11.59586,0 -21.12365,5.56742 -26.28998,15.36215 -2.54424,4.82355 -2.71002,5.93311 -2.71002,18.13785 0,12.15659 0.17262,13.32439 2.66071,18 5.66922,10.6536 14.52071,15.9204 26.83929,15.96988 10.10379,0.0406 16.15373,-1.90951 23.74141,-7.65261 3.50048,-2.6495 6.51101,-4.81727 6.69007,-4.81727 0.17907,0 2.50157,2.54703 5.16111,5.66006 l 4.83554,5.66006 -5.64045,5.12592 c -10.05204,9.13508 -19.60866,12.56249 -34.78768,12.47629 -5.225,-0.03 -11.92445,-0.706 -14.88767,-1.5029 z m 100.91818,-0.3949 c -7.31217,-2.71402 -11.94234,-6.60009 -15.36839,-12.89858 -2.40689,-4.42486 -2.84274,-6.38725 -2.86985,-12.92157 -0.0378,-9.10667 1.73186,-14.0895 6.88044,-19.37341 7.48756,-7.68438 19.95068,-10.83097 42.89965,-10.83097 h 12.42764 v -5.2566 c 0,-7.30694 -1.42926,-11.55933 -5.18894,-15.43834 -7.42981,-7.66561 -23.88364,-7.10534 -39.99691,1.36194 -3.77865,1.98562 -7.0516,3.42889 -7.27323,3.20726 -1.30478,-1.30479 -6.36408,-13.35137 -5.91348,-14.08047 0.29847,-0.48292 2.30148,-1.58178 4.45113,-2.4419 2.21757,-0.8873 3.62811,-2.01748 3.26044,-2.61238 -0.35849,-0.58005 -0.17256,-0.75467 0.41614,-0.39083 0.5853,0.36173 3.13998,-0.2321 5.67707,-1.31963 7.77318,-3.33197 20.04185,-5.34624 29.00791,-4.76251 15.12379,0.98462 24.9281,6.67451 30.28009,17.57292 l 2.77978,5.66054 0.5,29.5 0.5,29.5 5.5,0.0926 5.5,0.0926 0.29206,7.65741 0.29207,7.65742 h -12.08981 c -11.78921,0 -12.15079,-0.066 -14.54207,-2.64604 -1.34874,-1.45533 -2.45225,-3.63033 -2.45225,-4.83335 0,-3.63901 -1.11745,-3.64726 -5.11279,-0.0377 -7.2558,6.55518 -13.19107,8.79559 -24.38721,9.20549 -8.21204,0.3007 -10.97792,0 -15.46949,-1.6639 z m 30.69008,-16.57258 c 2.8123,-1.40143 6.95066,-4.54138 9.19635,-6.97766 3.96926,-4.30615 4.08306,-4.62532 4.08306,-11.45195 v -7.02234 h -12.7899 c -13.60022,0 -23.10678,1.71561 -26.56887,4.79479 -2.3164,2.0602 -4.64123,7.28903 -4.64123,10.43869 0,3.71524 3.39337,8.97193 7.06166,10.93925 5.39017,2.89078 17.12915,2.53314 23.65893,-0.72078 z m -508.72059,8.54805 v -8 l 15.25,10e-5 15.25,1.1e-4 v -54.25011 -54.2501 l -14.5,-0.5 -14.5,-0.5 v -7.5 -7.5 l 23.75,-0.2681 23.75,-0.2681 v 62.5181 62.5181 h 17 17 v 8 8.00003 h -41.5 -41.5 z m -113,-159.52922 c -8.55974,-5.59351 -12.86589,-10.84818 -24.98774,-30.49185 -34.42205,-55.78149 -32.58914,-119.84363 -28.59683,-152.47893 3.47115,-23.21972 9.08396,-46.44078 15.22785,-63 15.18711,-40.93276 27.46754,-63.42432 35.33606,-75.15984 2.73863,-4.03636 5.91022,-9.16352 7.04797,-11.39369 4.90135,-9.60746 19.28993,-26.93891 28.78993,-31.17465 3.03998,-1.35542 5.40679,-1.73633 8,-1.2875 6.85105,0.74145 11.47694,7.50254 15.24196,28.01568 2.29088,12.48151 1.70082,64.17272 -1.01649,89.04862 -1.74547,15.97905 -10.72984,78.56633 -13.085,91.15319 -3.29,17.58307 -7.03641,35.44691 -8.55619,40.79819 -3.40276,11.98137 -11.36416,46.84775 -12.78705,56 -0.85508,5.5 -2.27617,19.675 -3.15799,31.5 -0.88181,11.825 -1.90776,23.75 -2.27989,26.5 l -0.67659,5 -4.5,0.28242 c -3.74718,0.23518 -5.42012,-0.31884 -10,-3.31164 z m 635.96973,-2.22078 c -0.0167,-0.4125 -0.15439,-14.925 -0.3061,-32.25 -0.32013,-36.55881 0.37817,-32.11206 -14.68276,-93.5 -2.34182,-9.54522 -5.85895,-27.47817 -6.47217,-33 -0.36648,-3.3 -1.07461,-7.35 -1.57361,-9 -2.89363,-9.56796 -10.93378,-74.00031 -13.42932,-107.62009 -0.648,-8.72986 -0.64611,-42.44074 0.003,-51.37991 1.46459,-20.17304 6.41466,-35.85764 12.27275,-38.88697 2.81039,-1.45331 9.24938,-1.51577 12.53037,-0.12155 3.95521,1.68073 17.50748,14.7011 20.40217,19.60142 0.9445,1.5989 2.07024,2.90709 2.50166,2.90709 0.43141,0 0.78439,0.6199 0.78439,1.37756 0,0.75765 0.67635,1.93887 1.503,2.62493 0.82666,0.68606 4.08916,5.56756 7.25,10.84776 3.16085,5.28021 6.29185,10.51149 6.95778,11.62507 0.66593,1.11358 1.48628,2.69969 1.823,3.52469 0.33672,0.825 1.02937,2.2875 1.53922,3.25 3.80316,7.17964 11.927,24.71201 11.927,25.74014 0,0.51639 1.07084,2.86736 2.37963,5.22438 1.3088,2.35701 3.5912,7.43548 5.072,11.28548 1.4808,3.85 3.04374,7.9 3.47321,9 2.46236,6.30682 8.55358,25.41425 9.56364,30 0.24228,1.1 0.88458,3.8 1.42733,6 1.80409,7.31278 4.99516,24.9168 5.61936,31 0.33862,3.3 1.008,7.79481 1.48753,9.98847 0.47953,2.19366 0.718,15.24366 0.52995,29 -0.32708,23.92625 -1.00861,31.00844 -4.49992,46.76153 -0.579,2.6125 -1.50675,6.8875 -2.06167,9.5 -2.02896,9.55217 -12.81556,39.34458 -14.93492,41.25 -0.30588,0.275 -2.99194,5.27864 -5.96904,11.1192 -7.61661,14.9425 -23.17092,35.68539 -30.14747,40.20401 -2.55779,1.65664 -11.32692,4.64551 -13.68963,4.66597 -0.6875,0.006 -1.26362,-0.32668 -1.28027,-0.73918 z"
             id="path14"
             inkscape:label="edge-shade"
             sodipodi:nodetypes="ssssssssscscssssssscsssssscssssssssssscsssssssscsscsssssssssscsscsssscssssssssssssscssscsssscsssssssssssssscsssssssssssssscsssscssssssssssssssssscsscccccssssscccssssssssssssssssssssssssssssssssssssscssssssssssssssssssssssssscsssssscccssssscccssssscssssssssssssssssssssssssssssssssssssssssscssssssssssscsscccccccssscsssssssscssscssssscsssssssscccssssscssssssssssscsssccsssssssssscsscsssssscssscssssssssscccccsssssssssscscscsssscssssssssssscccccccssssscssscssssscccccccccccccccccccccssssssssssssssscsssssssscsssssssssssssssssssssssssss" />
        </g>
      </g>
      <path
         id="path20"
         style="display:inline;fill:#f9f9f9;stroke-width:1.13354;stroke-linecap:round;stroke-linejoin:round"
         d="m 356.45514,1045.6726 c -15.74787,-39.17 16.16581,-129.72563 16.16581,-129.72563 0,0 23.54989,-56.09134 64.99487,-56.79849 47.46738,-0.80991 68.91321,56.76581 68.91321,56.76581 0,0 34.38547,84.84481 20.98986,123.50971 -12.98233,37.4721 -51.15357,63.0551 -84.0748,64.2576 -32.92123,1.2025 -72.3137,-21.5069 -86.98895,-58.009 z"
         sodipodi:nodetypes="scscsss"
         inkscape:label="muzzle" />
      <path
         style="display:inline;fill:#272827;stroke:#000000;stroke-width:0.8;stroke-dasharray:none;stroke-opacity:1"
         d="m 435.79708,1193.4119 c -8.33589,-1.0885 -19.74203,-6.017 -26.18526,-11.3144 l -5.3147,-4.3697 -11.19896,-0.6192 c -18.25801,-1.0096 -36.01109,-7.2995 -48.89565,-17.3237 -4.42406,-3.442 -6.51359,-4.4152 -9.50787,-4.4289 -17.58174,-0.08 -37.93638,-11.3799 -47.29642,-26.2572 -3.10617,-4.9372 -4.03955,-5.6627 -10.00828,-7.7791 -8.59371,-3.0473 -23.04627,-10.2899 -30.60242,-15.3361 -7.79645,-5.2066 -13.48866,-10.6963 -19.55838,-18.8625 -4.90616,-6.6008 -4.90676,-6.6011 -11.76563,-7.8289 -7.62181,-1.3643 -20.34784,-6.553 -26.43427,-10.7778 -11.98101,-8.3163 -22.46148,-27.3964 -24.38037,-44.3853 l -0.66545,-5.8906 -10.641,-5.2037 c -22.86932,-11.1835 -37.40666,-28.20297 -44.1064,-51.63727 -3.58207,-12.5296 -3.00979,-30.6356 1.44169,-45.6119 0.28804,-0.969 -1.76846,-3.0734 -5.78287,-5.9176 -27.80241,-19.6976 -37.854634,-59.3409 -24.56133,-96.86262 l 2.14087,-6.0428 -7.9801,-7.9931 c -4.75564,-4.7635 -9.529191,-10.7677 -11.813981,-14.8599 -16.196599,-29.0095 -14.69946,-68.834 3.592372,-95.5618 1.577305,-2.3048 2.867879,-4.6046 2.867879,-5.1107 0,-0.5061 -1.883865,-1.7711 -4.18637,-2.8111 -2.302504,-1.0399 -8.514095,-4.57409 -12.723277,-8.71789 -9.164181,-9.0218 -14.075098,-19.15089 -18.32061,-35.45531 -3.270806,-12.56115 -3.711765,-32.94885 -1.853528,-47.09625 1.39025,-10.58485 6.848166,-27.58876 11.542349,-35.96024 7.5717,-13.30619 15.479441,-17.95284 31.546406,-26.07112 0.142869,-0.0722 -4.340647,-5.02372 -8.453953,-11.10607 -31.374155,-46.39295 -45.76591,-88.85946 -50.687181,-142.19297 -1.336407,-14.4829 -0.7247,-51.06563 0.990219,-59.21529 0.58008,-2.75677 1.990747,-10.42558 3.134693,-17.04182 2.362655,-13.66354 7.642222,-34.58278 11.521632,-45.6517 1.441592,-4.11326 3.212057,-9.2831 3.934254,-11.48851 7.377303,-22.52879 31.903993,-71.67841 46.523096,-93.22878 4.9634,-7.3167 10.05131,-15.49809 10.05131,-16.16256 0,-0.3604 2.56833,-4.08896 5.70742,-8.28571 3.1391,-4.19674 7.07987,-9.55678 8.75725,-11.9112 2.92422,-4.10443 9.5504,-12.863442 15.33208,-20.266952 1.50154,-1.92284 4.32009,-5.30614 6.26329,-7.51845 1.94321,-2.21231 5.3173,-6.27792 7.49811,-9.03468 6.88579,-8.70434 20.60224,-22.44529 27.5696,-27.61885 13.36506,-9.92408 28.45524,-14.28405 38.24154,-11.04903 5.47873,1.81109 11.98581,8.20845 15.53805,15.27605 4.43307,8.82016 8.71211,26.80477 10.33585,43.44102 2.58094,26.442752 1.37564,84.432362 -2.67731,128.816092 -3.04212,33.31485 0.077,82.74041 -5.47214,118.45129 -5.59593,36.01149 -20.66406,74.38281 -22.20574,80.1846 -0.34668,1.30479 0.99894,0.41449 6.20305,-2.9575 15.76934,-10.21777 28.25924,-13.87337 54.79619,-16.88126 2.33944,-0.26516 4.25352,-0.83565 4.25352,-1.26774 0,-0.43209 1.76677,-3.52357 3.92605,-6.86995 7.77313,-12.04609 24.8946,-23.23253 42.88888,-28.02169 8.15775,-2.17119 11.99823,-2.60109 23.74344,-2.65784 11.965,-0.0578 14.96178,0.25714 20.51698,2.15636 l 6.50538,2.22408 1.50124,-2.23174 c 0.82568,-1.22745 4.70659,-5.44732 8.62434,-9.37748 5.77567,-5.79395 8.5824,-7.75422 14.83687,-10.36221 11.27623,-4.70193 20.99637,-6.91056 37.87493,-8.60598 53.50527,-5.37447 92.09479,3.94505 106.33017,25.67914 3.66633,5.59764 3.70796,5.62466 6.51248,4.22331 9.02987,-4.51205 27.5598,-5.49037 43.2665,-2.28431 23.96582,4.89188 41.75384,15.87401 49.39786,30.49783 l 2.75228,5.26533 10.40721,0.67395 c 5.72393,0.37067 14.08455,1.3708 18.57917,2.22252 13.49596,2.55749 32.46936,10.45804 39.07552,16.27115 2.2924,2.01715 2.71895,5.47591 -4.67887,-37.9432 -17.63489,-103.50409 -27.00013,-199.4853 -25.38259,-260.13835 1.19368,-44.759812 7.17873,-71.828662 18.36929,-83.080722 6.00187,-6.0348 10.68144,-8.02455 18.82007,-8.00232 8.54027,0.0234 16.48264,3.04766 26.32948,10.0259 7.23118,5.12461 22.66275,20.12733 28.20944,27.42556 1.88566,2.48109 5.52367,6.84757 8.08449,9.70331 2.56082,2.85573 6.81944,8.26901 9.46363,12.02951 2.64408,3.76051 7.15311,9.99841 10.01989,13.862002 4.50622,6.07295 14.59367,21.01806 21.98538,32.57243 8.91828,13.94075 12.15516,19.31616 17.63519,29.28638 8.49993,15.46435 11.94228,22.44213 21.85528,44.30094 6.37638,14.06049 16.49395,44.97903 20.53289,62.74723 12.44319,54.74019 10.69174,103.87699 -5.52147,154.9009 -8.01803,25.23355 -21.88841,53.3643 -39.11826,79.33694 l -12.74374,19.21019 5.63936,2.29259 c 12.13904,4.9349 23.21,16.72785 30.00863,31.96537 9.04918,20.28188 10.81514,54.17184 4.09048,78.49941 -3.72278,13.46803 -9.03998,23.15889 -17.18091,31.31299 l -7.3682,7.3803 4.21299,5.1443 c 23.25604,28.397 26.49291,69.6172 8.05936,102.6331 -3.58846,6.4274 -10.10495,13.8723 -16.89177,19.2985 l -3.79794,3.0366 2.11585,5.3768 c 1.16376,2.9573 2.94584,9.0025 3.96028,13.4338 8.03875,35.11802 -3.49039,68.54732 -29.35179,85.10682 -4.83169,3.0938 -5.76076,4.1309 -5.33341,5.9529 7.38691,31.4904 -1.78337,61.8833 -24.93242,82.6331 -5.35874,4.80337 -11.09418,8.68047 -25.22237,17.05047 -0.70919,0.4201 -2.13947,4.945 -3.17833,10.0552 -3.09926,15.2446 -11.52553,29.7393 -22.26972,38.3078 -9.88538,7.8837 -28.0457,14.9939 -38.40728,15.0374 -3.90813,0.016 -4.34019,0.3463 -9.50786,7.2616 -11.09238,14.844 -31.01086,27.5554 -53.97475,34.4454 -5.59543,1.6788 -6.5264,2.3596 -9.43941,6.9021 -9.50196,14.8177 -27.61314,25.0268 -46.72586,26.3389 -7.53563,0.5174 -8.42877,0.8305 -13.91931,4.8789 -14.19114,10.464 -30.56258,16.2286 -48.67627,17.1397 l -11.19286,0.563 -4.82039,4.0245 c -5.96853,4.9833 -15.5941,9.4712 -24.25957,11.3111 -7.20095,1.5289 -9.54219,1.5757 -18.7392,0.3749 z m 23.16146,-17.0714 c 2.75478,-1.0325 8.12903,-4.3681 11.94278,-7.4124 4.25172,-3.3938 7.92976,-5.5495 9.50787,-5.5725 27.29558,-0.397 39.68753,-4.5076 62.02081,-20.5728 2.72925,-1.9632 4.62422,-2.4462 9.59794,-2.4462 7.60018,0 20.44191,-3.1778 25.94736,-6.4209 5.91189,-3.4824 10.92814,-8.8878 14.53062,-15.6579 1.73324,-3.2571 3.58467,-6.1903 4.11441,-6.5182 0.52963,-0.3279 4.90255,-1.7378 9.71743,-3.1329 23.24754,-6.7363 45.27556,-21.6623 52.28766,-35.4294 3.47127,-6.8154 5.01765,-7.6577 15.30016,-8.3342 17.21264,-1.1326 28.59916,-6.5572 37.81518,-18.0155 8.02444,-9.9769 10.92874,-17.5161 11.54465,-29.968 0.21858,-4.421 0.67536,-8.4885 1.01494,-9.0389 0.33968,-0.5505 3.44795,-2.2728 6.90742,-3.8274 17.5366,-7.88097 32.48217,-21.27947 39.27709,-35.21137 2.32162,-4.7602 4.9578,-11.5268 5.85814,-15.0369 2.27319,-8.8624 1.41167,-23.4889 -2.08382,-35.3788 -3.04532,-10.3586 -2.97256,-12.5877 0.46509,-14.2478 1.37613,-0.6646 5.50095,-2.6049 9.16628,-4.3117 11.64653,-5.4236 21.28911,-17.9886 25.49489,-33.2219 1.27706,-4.6254 1.76736,-9.9606 1.74294,-18.9665 -0.039,-14.3917 -2.16549,-23.88932 -7.94167,-35.47142 -5.16927,-10.3651 -4.89745,-11.5304 3.9821,-17.0738 9.45151,-5.9005 16.65908,-13.8059 20.92781,-22.954 5.79299,-12.4151 7.09086,-18.6249 7.05724,-33.7689 -0.027,-12.1024 -0.32077,-14.3812 -2.7806,-21.5529 -1.51296,-4.4109 -4.13172,-10.4404 -5.81952,-13.399 -2.91311,-5.1065 -11.98701,-16.8355 -14.24538,-18.4138 -0.57968,-0.4051 -4.31908,-0.7434 -8.30988,-0.7518 l -7.256,-0.015 v -10.8821 -10.8821 l 6.63749,-0.6209 c 3.65062,-0.3414 8.56799,-1.55686 10.92754,-2.70094 9.05099,-4.38866 16.24764,-15.42909 20.56762,-31.55297 3.15401,-11.77216 3.13229,-32.62083 -0.047,-45.11069 -2.88559,-11.33625 -6.90331,-19.38846 -12.89317,-25.84031 -5.38966,-5.80539 -11.3629,-8.81098 -19.18757,-9.6547 l -5.50456,-0.59355 0.10159,-5.51353 c 0.35309,-19.16242 -0.92397,-15.51848 12.66468,-36.13915 32.38569,-49.14535 49.33781,-95.67596 53.85114,-147.81224 3.65263,-42.19448 -4.81398,-89.56612 -24.9042,-139.34192 -8.31488,-20.60115 -28.19742,-58.2526 -40.23188,-76.18696 -2.58984,-3.85946 -6.32053,-9.4983 -8.29046,-12.53074 -6.43672,-9.90866 -13.13026,-19.41933 -18.69637,-26.56518 -3.00618,-3.859472 -7.64552,-9.949422 -10.30952,-13.533212 -12.91639,-17.37588 -32.21556,-36.51462 -42.02917,-41.67996 -8.66998,-4.56339 -15.81539,-5.45325 -20.424,-2.54353 -4.25832,2.68854 -9.7961,14.32627 -12.29207,25.83157 -5.64587,26.02588 -6.19362,72.965852 -1.52486,130.667422 5.26566,65.07976 20.52448,169.4578 34.14555,233.57315 5.72243,26.93599 5.71052,28.19743 -0.29044,30.70886 -2.86697,1.19986 -4.16585,1.26942 -6.3995,0.34269 -2.63838,-1.09461 -5.93361,-6.15708 -5.95522,-9.14893 0,-0.74371 -1.06458,-3.60772 -2.35385,-6.36449 -4.87583,-10.42567 -16.49695,-20.21062 -30.66367,-25.81881 -13.19221,-5.22241 -23.38144,-6.85551 -42.57342,-6.82352 l -14.25229,0.0238 -0.66755,-4.74238 c -1.19599,-8.49586 -4.76574,-14.27112 -12.42728,-20.10527 -11.4857,-8.74609 -26.49602,-13.52447 -42.6726,-13.58433 -11.79056,-0.0436 -20.26066,2.4002 -26.21779,7.56451 -8.17186,7.08421 -15.25282,4.61894 -16.6795,-5.80708 -1.25664,-9.18309 -5.93691,-14.50053 -18.20306,-20.68139 -12.15956,-6.12714 -33.45878,-9.31724 -55.49611,-8.31198 -36.07915,1.6458 -53.62886,6.09207 -63.64515,16.12475 -3.6296,3.63552 -4.45829,5.29809 -5.9193,11.87543 -2.79141,12.56748 -8.11291,14.68139 -17.07252,6.78194 -6.1621,-5.43295 -13.56893,-7.61328 -25.45576,-7.49338 -12.28226,0.12388 -21.35026,2.30947 -32.53151,7.84081 -14.09396,6.97228 -21.3978,15.36872 -23.34521,26.83752 l -0.7201,4.24071 -14.9874,0.6213 c -17.97007,0.74495 -26.88054,2.84556 -40.50851,9.54966 -15.90306,7.82333 -26.52614,20.04901 -30.40716,34.99431 -1.58581,6.10706 -4.31537,9.46879 -7.68806,9.46879 -3.32425,0 -6.78531,-2.21303 -7.9802,-5.10263 -1.19579,-2.89163 -1.3386,-2.04601 10.56414,-62.56341 5.3126,-27.01056 17.35266,-107.22717 22.49441,-149.86775 5.88997,-48.84561 9.47814,-105.94194 8.55408,-136.11446 -0.92687,-30.262542 -3.81516,-49.159782 -9.41599,-61.605952 -3.96148,-8.80331 -7.38151,-11.1463 -14.96658,-10.2535 -7.22008,0.84985 -11.25471,2.69098 -19.60883,8.94821 -11.46718,8.58897 -24.47224,22.47054 -38.36653,40.95242 -4.63634,6.167092 -9.52319,12.566222 -10.8596,14.220272 -2.6596,3.29151 -13.31101,18.17307 -14.91284,20.83526 -0.93217,1.54924 -2.6624,4.13237 -12.67348,18.92125 -2.11215,3.12008 -3.84018,5.9235 -3.84018,6.22982 0,0.59687 -7.79675,13.87715 -11.55095,19.67481 -9.55641,14.75796 -31.724052,65.26526 -36.518418,83.20417 -0.515726,1.92973 -2.096234,7.79412 -3.512205,13.03197 -12.191786,45.09702 -13.684421,84.33489 -4.920871,129.35302 6.97527,35.832 25.313841,79.2137 44.480404,105.22259 2.64098,3.5838 6.20113,8.90415 7.91144,11.82303 3.00479,5.12797 3.10978,5.70675 3.10978,17.15518 v 11.84816 l -6.55072,0.52668 c -5.32961,0.42851 -7.55425,1.19407 -11.93438,4.10707 -8.545871,5.68341 -15.998737,18.38112 -19.267141,32.82605 -2.467541,10.90554 -2.16399,31.9466 0.613308,42.51025 5.931507,22.56129 17.648903,34.58491 33.703883,34.58491 h 4.20839 l 0.15312,10.4792 0.15323,10.4792 -3.37169,3.8058 c -18.55215,20.9411 -24.373469,49.5732 -15.54356,76.4505 4.17836,12.7184 11.01962,21.9253 21.9992,29.6063 3.94066,2.7567 7.6007,5.7175 8.13334,6.5795 0.69958,1.1323 0.0861,3.4756 -2.20874,8.4427 -10.62559,22.9941 -11.81357,46.16362 -3.40822,66.46972 4.55738,11.0099 17.18812,23.3936 27.28719,26.7535 5.95772,1.982 6.78771,3.8182 4.66265,10.3155 -8.5744,26.2152 -7.26422,45.9127 4.2229,63.4874 8.05166,12.3187 21.17922,22.2335 36.21696,27.35337 4.67647,1.5922 9.0657,3.5956 9.75377,4.452 0.732,0.9112 1.25714,4.4929 1.26584,8.6333 0.031,14.9606 5.34172,28.0868 14.91494,36.8659 8.10501,7.4327 14.55464,10.1074 25.60378,10.618 10.43383,0.4822 11.18966,0.938 15.74133,9.4918 2.0601,3.8714 6.06651,8.6418 11.66114,13.8847 9.77099,9.1568 22.45258,16.1783 37.21269,20.6039 l 8.77606,2.6313 3.82006,6.9803 c 7.31785,13.3716 17.73297,20.1723 33.6086,21.9454 5.10372,0.57 10.18623,1.1998 11.29454,1.3997 1.10832,0.1999 5.61205,3.0887 10.00828,6.4196 13.45353,10.1932 28.60417,15.0764 46.7764,15.0764 h 9.34313 l 5.74675,4.8669 c 6.84977,5.8012 15.48952,10.2943 21.68945,11.2797 6.36006,1.0108 16.62945,0.01 22.51412,-2.1968 z m -63.5909,-115.4661 c -7.44406,-2.5946 -14.95548,-7.9733 -21.71197,-15.5474 -11.27522,-12.6397 -12.55478,-15.7214 -7.81866,-18.8297 3.27951,-2.1523 6.01948,-1.1279 9.0669,3.3895 3.90032,5.782 15.593,17.1773 20.00615,19.4971 5.46632,2.8735 12.698,2.7846 18.51531,-0.2276 5.01035,-2.5944 19.04376,-15.7735 22.14092,-20.7929 1.813,-2.9382 1.96743,-4.6839 1.6871,-19.0608 l -0.30856,-15.82637 -7.50621,-0.6201 c -8.79608,-0.7267 -17.07653,-2.3134 -25.73839,-4.9318 -13.16669,-3.9802 -16.29638,-7.1173 -16.29638,-16.3351 0,-25.5418 38.43139,-84.875 54.97548,-84.875 7.88312,0 19.88054,11.2205 32.41631,30.3169 12.11483,18.4551 19.68819,36.3692 21.85068,51.6852 0.95919,6.7938 0.88373,8.2508 -0.57327,11.073 -3.63011,7.0312 -16.13725,11.0547 -42.65509,13.7221 l -5.54509,0.5577 0.27853,16.70607 0.27853,16.7059 6.26739,6.4044 c 11.13461,11.3778 20.6735,17.3052 27.66078,17.1881 7.60799,-0.1274 16.71523,-6.7468 25.66013,-18.6506 4.55056,-6.0559 6.03279,-7.3693 8.31608,-7.3693 7.29904,0 6.97497,5.6664 -0.88393,15.4514 -7.60499,9.469 -12.75966,13.9082 -20.69172,17.8198 -5.72624,2.8239 -6.87929,3.0397 -14.0246,2.6254 -6.54392,-0.3795 -8.90047,-1.0418 -14.77823,-4.1535 -3.84598,-2.0361 -10.67903,-7.0909 -15.18436,-11.2329 l -8.19168,-7.5308 -8.87144,8.7978 c -11.15482,11.0622 -17.47896,14.4867 -27.60914,14.9504 -4.01852,0.184 -8.74873,-0.2158 -10.73157,-0.9069 z M 262.30035,861.96263 c -10.34395,-1.7343 -21.66112,-7.9133 -28.54981,-15.5878 -8.65557,-9.6427 -12.59933,-20.05932 -12.60743,-33.29952 -0.013,-20.937 10.22626,-36.674 29.87811,-45.9215 5.9228,-2.7871 8.06037,-3.2372 16.98686,-3.5772 8.29976,-0.3161 11.50742,0.01 17.13417,1.7173 23.23322,7.0684 38.11013,30.912 34.24833,54.8904 -4.42976,27.50442 -30.11551,46.30122 -57.09023,41.77832 z m 25.57586,-65.06172 c 4.43387,-2.1075 7.93156,-9.0588 7.01641,-13.9447 -0.91726,-4.8974 -4.97662,-9.2826 -9.79591,-10.5825 -3.33556,-0.8996 -4.88944,-0.7906 -8.51865,0.5977 -5.64817,2.1605 -8.26393,6.2413 -8.26904,12.9002 0,4.443 0.38622,5.2884 4.04175,8.7715 3.32885,3.1719 4.76464,3.8546 8.1056,3.8546 2.23305,0 5.57191,-0.7186 7.41984,-1.5968 z m 312.81638,64.16982 c -16.84263,-4.5369 -31.26916,-19.0135 -35.75177,-35.87582 -1.8147,-6.8265 -1.75195,-17.8717 0.14292,-25.1584 2.22624,-8.5609 6.13717,-15.2443 12.99685,-22.2102 9.84224,-9.9946 21.22446,-14.7029 35.51037,-14.689 27.47884,0.027 49.11253,22.0312 49.01605,49.8561 -0.031,9.0112 -1.30958,14.4694 -5.29077,22.58942 -9.80311,19.9948 -34.96683,31.3217 -56.62365,25.4879 z m 29.2508,-63.51402 c 3.58577,-1.3655 6.55302,-4.9382 7.72639,-9.3027 0.8435,-3.1379 0.67967,-4.5966 -0.92446,-8.2288 -2.46004,-5.5704 -6.00036,-7.9301 -12.03486,-8.0215 -6.0494,-0.092 -9.73925,2.3234 -12.25563,8.0215 -1.60503,3.6342 -1.76827,5.0901 -0.92317,8.2335 0.99312,3.6942 4.98242,8.4104 8.06427,9.5336 2.45013,0.893 7.69757,0.7735 10.34746,-0.2356 z M 347.37073,641.11156 v -67.16481 h 7.44716 c 4.09589,0 7.67225,0.36491 7.94747,0.81093 0.27523,0.446 0.63953,3.37662 0.80967,6.51248 0.17015,3.13585 0.45748,5.70313 0.63853,5.70506 0.18115,0.002 2.24656,-1.9137 4.59,-4.25695 17.43723,-17.43594 49.63266,-12.18155 61.4111,10.0225 5.11393,9.64059 6.49187,16.94716 6.00307,31.8302 -0.38412,11.69054 -0.75292,13.85748 -3.58336,21.05166 -5.75757,14.63448 -15.76455,22.86588 -31.14507,25.61898 -12.06248,2.1592 -25.5059,-1.3216 -33.39222,-8.6462 -1.4433,-1.3404 -2.86898,-2.43711 -3.16823,-2.43711 -0.29924,0 -0.54405,10.82651 -0.54405,24.05901 v 24.0591 h -8.50703 -8.50704 z m 55.58688,12.6642 c 8.71802,-4.06628 13.51949,-11.65046 15.50974,-24.49873 2.12145,-13.6955 -1.75906,-27.9849 -9.55431,-35.18198 -10.1513,-9.37245 -27.54859,-8.11487 -38.01375,2.74788 -5.64787,5.86249 -6.35225,8.62398 -6.43282,25.22189 -0.0831,17.10384 0.85231,21.31 5.77178,25.95728 8.7063,8.22446 22.29774,10.6145 32.71936,5.75366 z m -252.74999,16.80425 c -21.96026,-5.888 -34.02816,-23.25364 -34.02816,-48.96616 0,-15.17537 3.64842,-25.78181 12.02726,-34.96455 9.87917,-10.82697 25.29963,-15.88749 41.51705,-13.62459 6.98558,0.97475 17.09794,5.12401 21.10546,8.65995 4.1155,3.6312 9.28718,11.33882 11.39573,16.98364 2.24655,6.01415 4.50312,25.29504 3.12458,26.69658 -0.42946,0.43665 -16.61515,0.81602 -35.96806,0.84304 l -35.1871,0.0491 v 3.37981 c 0,8.57571 7.25039,19.63721 15.63733,23.8571 5.20821,2.62045 15.29105,3.79185 21.98959,2.55466 7.58938,-1.40174 11.49862,-3.06586 17.407,-7.41004 l 4.77635,-3.51192 4.3491,5.64642 4.3491,5.64642 -3.97919,3.50187 c -5.08391,4.47407 -16.4431,9.93887 -23.38174,11.24877 -7.51742,1.4191 -18.612,1.1586 -25.1343,-0.5902 z m 38.03146,-59.06606 c 0,-2.97201 -3.95967,-12.76039 -6.52439,-16.12839 -4.3529,-5.71624 -9.65019,-7.85817 -19.49713,-7.88362 -7.11819,-0.0184 -9.3036,0.38546 -13.38568,2.47362 -6.23235,3.18808 -10.05992,7.87435 -12.61063,15.43989 -1.11482,3.30638 -2.02687,6.37513 -2.02687,6.81942 0,0.4443 12.16006,0.80781 27.02235,0.80781 23.54938,0 27.02235,-0.19647 27.02235,-1.52873 z m 295.74467,59.33046 c -9.00445,-2.3473 -15.47441,-7.0586 -19.29517,-14.05049 -2.68852,-4.91981 -2.4236,-20.88108 0.43496,-26.20819 2.60276,-4.8504 5.53989,-7.66236 10.85358,-10.39102 7.78624,-3.99838 15.00952,-5.14711 32.36538,-5.14711 h 16.43199 l -0.45488,-7.86968 c -0.81387,-14.08144 -6.33654,-19.13263 -20.96454,-19.17472 -8.66697,-0.025 -17.39039,2.32831 -25.64982,6.91934 l -5.27766,2.9336 -3.04623,-6.04441 c -1.67538,-3.32441 -2.81202,-6.65571 -2.52578,-7.40286 0.66925,-1.74697 8.21419,-5.52136 17.12817,-8.56851 6.07702,-2.07736 8.86323,-2.39449 21.01738,-2.39221 13.32473,0.003 14.29243,0.14061 19.73983,2.81701 6.87649,3.3785 11.99523,9.0745 14.96138,16.64878 2.02578,5.17276 2.22214,7.72125 2.61266,33.91256 l 0.42225,28.3195 h 5.40207 5.40197 v 7.51841 7.5185 l -9.25766,-0.01 c -12.38284,-0.01 -16.27136,-1.1468 -17.67452,-5.1785 -0.6001,-1.7237 -1.091,-4.25654 -1.091,-5.62811 0,-2.36193 -0.26623,-2.24437 -5.03607,2.22461 -7.02992,6.5863 -13.91611,9.5286 -23.62735,10.095 -4.74732,0.277 -9.85115,-0.058 -12.87094,-0.8455 z m 26.73161,-16.65344 c 2.59234,-1.22925 6.75829,-4.28324 9.25766,-6.78665 l 4.54426,-4.55165 v -7.4728 -7.47279 l -16.26346,0.33686 c -15.61662,0.32348 -16.4484,0.44575 -20.9128,3.07452 -10.35376,6.09646 -8.66036,21.18436 2.79031,24.86174 4.70729,1.51173 15.37492,0.48081 20.58403,-1.98923 z m 102.34196,16.58784 c -9.40898,-2.1563 -15.44708,-5.4811 -22.25911,-12.25681 -12.4506,-12.38423 -17.14789,-31.75729 -12.30178,-50.73637 2.48726,-9.74087 5.7963,-16.16732 11.2354,-21.82019 8.90657,-9.25654 19.71441,-13.27307 35.86907,-13.33001 14.60518,-0.0515 25.52572,3.97252 33.55136,12.36302 2.9021,3.03409 2.98116,3.38477 3.06703,13.61546 0.048,5.77564 -0.20316,10.6816 -0.55946,10.90213 -0.35629,0.22053 -4.05095,0.70986 -8.21039,1.0874 l -7.56276,0.68642 -0.16864,-8.39634 c -0.14802,-7.36889 -0.44006,-8.60831 -2.38647,-10.12849 -6.5248,-5.09587 -22.0039,-6.53181 -30.38444,-2.81865 -7.62801,3.37971 -11.00971,6.58695 -14.55854,13.80744 -3.1437,6.39626 -3.31294,7.30595 -3.31294,17.80977 0,10.49678 0.17074,11.41671 3.30253,17.78852 6.02308,12.25456 15.51343,17.41689 30.50253,16.59202 9.5468,-0.52536 16.88417,-3.52289 23.04527,-9.41474 2.09363,-2.00205 3.90593,-3.47621 4.02743,-3.27589 0.1215,0.20032 2.12416,2.49689 4.45038,5.1035 2.32613,2.6066 4.2294,5.15536 4.2294,5.6639 0,1.41791 -7.0105,8.12011 -11.39042,10.88961 -9.84515,6.2251 -27.42609,8.7924 -40.18545,5.8683 z m 103.88885,0.4156 c -5.94332,-1.2637 -12.27976,-4.3287 -15.64615,-7.5681 -10.50599,-10.10953 -10.06742,-31.13917 0.836,-40.08828 7.92085,-6.50116 13.52749,-7.83539 34.80699,-8.28327 l 18.76552,-0.39496 v -6.71091 c 0,-7.60174 -2.68832,-14.21659 -7.07745,-17.41445 -6.95946,-5.07059 -23.42628,-3.81887 -36.54994,2.77832 l -8.49823,4.27202 -3.0283,-6.00872 c -1.66548,-3.3048 -2.80993,-6.57848 -2.54321,-7.27483 0.75112,-1.96039 13.2912,-7.5038 22.04674,-9.74583 10.878,-2.78553 27.806,-2.28523 35.14998,1.03887 9.73345,4.40562 15.73121,12.48023 17.49097,23.54729 0.599,3.76711 1.05928,17.30032 1.02285,30.0738 -0.036,12.77346 -0.0511,23.78837 -0.032,24.47756 0.023,0.84646 1.82011,1.25308 5.53848,1.25308 h 5.50456 v 7.62661 7.6267 l -11.48821,-0.3653 c -13.27568,-0.4221 -15.27483,-1.5046 -16.25174,-8.7994 l -0.56647,-4.23018 -4.61232,4.53468 c -8.58,8.4355 -22.4897,12.2873 -34.86764,9.6553 z m 26.18746,-17.47658 c 3.03461,-1.48713 7.10548,-4.562 9.04619,-6.83306 3.34897,-3.91886 3.52871,-4.50731 3.52871,-11.55344 v -7.42425 l -16.26345,0.34155 c -13.34134,0.28018 -16.93501,0.67509 -20.00085,2.1979 -10.99109,5.4593 -10.01028,21.59178 1.55249,25.53406 5.43199,1.85204 15.92998,0.77897 22.13691,-2.26276 z m -509.16141,15.82548 c -0.38272,-0.3834 -0.69588,-3.7796 -0.69588,-7.5472 V 655.146 h 15.52134 15.52124 l -0.25861,-55.38591 -0.25871,-55.38591 -13.6568,-0.1267 c -7.51122,-0.0697 -14.04162,-0.36374 -14.51201,-0.65347 -0.47039,-0.28973 -0.70418,-3.50324 -0.51963,-7.14114 l 0.33558,-6.61436 h 23.43409 23.43408 v 62.65374 62.65375 h 16.8017 16.8017 l -0.1181,7.26781 -0.11819,7.2678 -40.50791,0.2794 c -22.27934,0.1537 -40.82107,-0.034 -41.20389,-0.4177 z"
         id="path13"
         inkscape:label="outline"
         sodipodi:nodetypes="sscsscssssssscssscscscsssssscsssscscsssccsscssccssssscssscsssssssscssscsssssssssssssscsssscssscscscsssscsscssscssscscssssscssssscsssscsssssssssccccsssssscsssssssssscsssscssscsssssssscsssscsssssssccscccscscscsssscssssscccsssscsscssscssssscssssscssccsssssssscsssssssscccssssssssscssssscsscsscssscsscssssccssssscssssccsssssscsssssccccssssssssssssssscsssscccsssssssssssscsssscssscssscssscccccccsssccsscccsssssssssscsscssssssssssssssssscssscscsssccscccsscsssssscsssscscccccssscccccccccsc" />
      <g
         id="g21"
         transform="translate(0,174)"
         inkscape:label="pupils">
        <circle
           style="fill:#f9f9f9;fill-opacity:1;stroke-width:1.734;stroke-linecap:round;stroke-linejoin:round"
           id="path21"
           inkscape:label="left pupil"
           r="14.488345"
           cy="612.25354"
           cx="281.71555" />
        <circle
           style="fill:#f9f9f9;fill-opacity:1;stroke-width:1.734;stroke-linecap:round;stroke-linejoin:round"
           id="path21-3"
           inkscape:label="right pupil"
           r="14.488345"
           cy="612.25354"
           cx="623.8158" />
      </g>
    </g>
  </g>
</svg>
